<svg width="15" height="14" viewBox="0 0 15 14" fill="none" xmlns="http://www.w3.org/2000/svg">
<path opacity="0.4" d="M13.898 0.346102C14.0162 0.54307 14.0387 0.770053 13.9561 0.998911L13.9092 1.13022L10.9843 4.06224L8.05755 6.99426L10.9524 9.89063L13.8436 12.7908L13.8961 12.9408C13.958 13.1209 13.9543 13.2729 13.8886 13.4548C13.8454 13.5749 13.8304 13.5974 13.7141 13.7137C13.594 13.8337 13.5809 13.8431 13.4364 13.89C13.2094 13.9688 12.9862 13.9426 12.7911 13.8225C12.746 13.7925 11.6991 12.757 9.85865 10.9167L6.99565 8.05413L4.06324 10.9805L1.13083 13.905L0.978866 13.9557C0.746224 14.0345 0.522963 14.0082 0.318463 13.8769C0.0708122 13.7174 -0.0586405 13.3629 0.0257854 13.0759C0.0914507 12.8545 -0.0942888 13.0459 3.05013 9.90376L5.94877 7.00551L3.05576 4.10726L0.164619 1.20901L0.117716 1.0777C0.0295372 0.831957 0.0614319 0.593719 0.205894 0.381744C0.262179 0.297329 0.299702 0.261687 0.384129 0.203534C0.596132 0.0572146 0.834402 0.0253245 1.08018 0.115367L1.21151 0.162264L4.11202 3.05113L7.01066 5.94563L9.89617 3.06051C11.9562 1.00079 12.8042 0.160389 12.8642 0.120995C13.1119 -0.0403316 13.4289 -0.0403316 13.6785 0.120995C13.7835 0.188527 13.8323 0.239176 13.898 0.346102Z" fill="black"/>
</svg>
