<svg width="20" height="17" viewBox="0 0 20 17" fill="none" xmlns="http://www.w3.org/2000/svg">
<g clip-path="url(#clip0_12486_13778)">
<path d="M8.70096 1.25C9.27831 0.25 10.7217 0.25 11.299 1.25L19.0933 14.75C19.6706 15.75 18.9489 17 17.7942 17H2.20577C1.05107 17 0.329383 15.75 0.906734 14.75L8.70096 1.25Z" fill="#FF5E5E"/>
<path d="M10.0558 12.7192C9.52789 12.7192 9.1001 13.147 9.1001 13.675C9.1001 14.2029 9.52789 14.6307 10.0558 14.6307L10.0576 14.6307C10.5847 14.6298 11.0116 14.2023 11.0116 13.675C11.0116 13.147 10.5838 12.7192 10.0558 12.7192Z" fill="white"/>
<path d="M10.0558 4.5C9.52789 4.50001 9.1001 4.9278 9.1001 5.45575V10.6167C9.1001 11.1443 9.52789 11.5725 10.0558 11.5725C10.5838 11.5725 11.0116 11.1443 11.0116 10.6167V5.45575C11.0116 4.9278 10.5838 4.5 10.0558 4.5Z" fill="white"/>
</g>
<defs>
<clipPath id="clip0_12486_13778">
<rect width="20" height="17" fill="white"/>
</clipPath>
</defs>
</svg>
