<svg width="130" height="81" viewBox="0 0 130 81" fill="none" xmlns="http://www.w3.org/2000/svg">
<path d="M30.5126 76.7369L29.1101 76.5363L28.1526 77.5772L27.9083 76.1827L26.623 75.5927L27.8726 74.9312L28.0374 73.5248L29.0545 74.5101L30.4411 74.232L29.8173 75.5013L30.5126 76.7369Z" fill="#FF4808"/>
<path d="M21.7084 62.8692L18.9849 62.9606L17.5189 65.257L16.5872 62.6964L13.9512 62.0111L16.0986 60.3345L15.9357 57.613L18.1943 59.1386L20.7311 58.1434L19.9782 60.7636L21.7084 62.8692Z" fill="#F9FBFC"/>
<path d="M110.054 20.0455L109.255 16.7526L106.089 15.5434L108.974 13.7661L109.143 10.3816L111.727 12.5756L114.999 11.6914L113.71 14.8257L115.56 17.6645L112.183 17.4076L110.054 20.0455Z" fill="#FF4808"/>
<path d="M114.951 44.3669L112.75 43.5961L110.867 44.9708L110.92 42.6406L109.031 41.2739L111.264 40.6045L111.979 38.3856L113.306 40.3025L115.638 40.2966L114.224 42.1519L114.951 44.3669Z" fill="#FF4808"/>
<path d="M24.4238 10.9017L21.3318 11.2697L19.8844 14.0255L18.5781 11.2005L15.509 10.6748L17.7929 8.55938L17.3449 5.47723L20.0624 6.99653L22.8548 5.6171L22.2504 8.67283L24.4238 10.9017Z" fill="#FFC801"/>
<path d="M95.764 77.7334L93.0187 78.0836L91.7397 80.643L90.5708 78.0262L87.8438 77.5474L89.8671 75.5789L89.4608 72.7227L91.8799 74.1235L94.3566 72.8376L93.8272 75.672L95.764 77.7334Z" fill="#FFC801"/>
<path d="M103.243 76.0496L102.099 74.375L100.07 74.3671L101.312 72.762L100.692 70.8311L102.601 71.5145L104.246 70.3305L104.186 72.3567L105.823 73.5546L103.876 74.1247L103.243 76.0496Z" fill="black"/>
<path d="M18.9245 76.2919L19.8343 73.6678L18.1875 71.431L20.9646 71.4846L22.5816 69.228L23.3901 71.8839L26.0361 72.7262L23.7576 74.3154L23.7755 77.0925L21.5606 75.4159L18.9245 76.2919Z" fill="black"/>
<path d="M42.0768 65.1676H42.0112C41.89 65.1844 41.7798 65.2469 41.7033 65.3424L39.5062 68.0857C39.4239 68.1886 39.3838 68.319 39.3942 68.4503C39.4045 68.5817 39.4645 68.7042 39.5619 68.7929C39.6512 68.8739 39.7671 68.9191 39.8876 68.9201C39.9593 68.9198 40.0299 68.9037 40.0945 68.8728C40.1591 68.8418 40.216 68.7969 40.2611 68.7413L42.4681 66.0019C42.5491 65.8985 42.5883 65.7684 42.578 65.6375C42.5677 65.5065 42.5086 65.3842 42.4125 65.2947C42.3206 65.2115 42.2007 65.166 42.0768 65.1676Z" fill="#FCCC00"/>
<path d="M36.3259 59.8378C36.3041 59.8359 36.2821 59.8359 36.2603 59.8378C36.1779 59.8497 36.0999 59.8826 36.0339 59.9332L30.4439 64.2836C30.3418 64.3664 30.2749 64.4849 30.2569 64.615C30.2388 64.7452 30.2709 64.8774 30.3465 64.9848C30.3912 65.0491 30.4505 65.1017 30.5196 65.1383C30.5887 65.1749 30.6656 65.1945 30.7438 65.1954C30.8495 65.1959 30.9523 65.1609 31.0358 65.0961L36.6258 60.7457C36.7278 60.6629 36.7947 60.5446 36.8132 60.4146C36.8316 60.2845 36.8001 60.1523 36.7252 60.0444C36.68 59.9806 36.6202 59.9285 36.5507 59.8925C36.4812 59.8566 36.4041 59.8378 36.3259 59.8378Z" fill="#FCCC00"/>
<path d="M29.4504 65.1179C29.4286 65.116 29.4066 65.116 29.3848 65.1179C29.297 65.1299 29.2144 65.1664 29.1464 65.2232L27.6387 66.4668C27.5388 66.5521 27.4751 66.6722 27.4603 66.8027C27.4456 66.9332 27.4809 67.0645 27.5592 67.17C27.6047 67.2325 27.6645 67.2832 27.7337 67.3177C27.8028 67.3523 27.8792 67.3698 27.9565 67.3686C28.0669 67.3687 28.1737 67.3301 28.2585 67.2594L29.7682 66.0158C29.8673 65.93 29.9304 65.81 29.9451 65.6797C29.9598 65.5495 29.9251 65.4184 29.8477 65.3126C29.8019 65.2507 29.7419 65.2007 29.6727 65.1669C29.6036 65.133 29.5273 65.1162 29.4504 65.1179Z" fill="#FCCC00"/>
<path d="M26.9639 51.3972C27.0187 51.3968 27.0731 51.3874 27.1248 51.3694L31.5587 49.7623C31.6812 49.7142 31.7805 49.6205 31.8356 49.501C31.8908 49.3814 31.8976 49.2452 31.8547 49.1207C31.8226 49.0217 31.7604 48.9353 31.6766 48.8737C31.5929 48.812 31.4918 48.7782 31.3879 48.777C31.3654 48.7751 31.3428 48.7751 31.3203 48.777C31.2886 48.7826 31.2574 48.7906 31.2269 48.8008L26.7911 50.4119C26.6684 50.4592 26.5689 50.5524 26.5136 50.6718C26.4584 50.7912 26.4518 50.9274 26.4951 51.0515C26.5266 51.1513 26.589 51.2386 26.6733 51.3007C26.7575 51.3628 26.8593 51.3966 26.9639 51.3972Z" fill="#FCCC00"/>
<path d="M34.9815 53.5863C34.9447 53.495 34.8816 53.4167 34.8003 53.3612C34.719 53.3057 34.6231 53.2755 34.5246 53.2744H34.4611C34.4166 53.2802 34.3731 53.2923 34.332 53.3102L26.5846 56.7865C26.4661 56.8432 26.3737 56.9432 26.3268 57.0659C26.2798 57.1887 26.2818 57.3247 26.3324 57.446C26.3679 57.5391 26.4308 57.6192 26.5127 57.6759C26.5945 57.7326 26.6916 57.7633 26.7912 57.7639C26.8597 57.7646 26.9275 57.7504 26.9899 57.7222L34.7372 54.2478C34.8545 54.1894 34.9451 54.0884 34.9905 53.9655C35.0359 53.8426 35.0327 53.7069 34.9815 53.5863Z" fill="#FCCC00"/>
<path d="M25.1636 57.5394C25.1424 57.5374 25.1211 57.5374 25.1 57.5394C25.0592 57.5454 25.0192 57.556 24.9808 57.5712L22.9745 58.4155C22.854 58.4692 22.759 58.5675 22.7094 58.6897C22.6598 58.8119 22.6594 58.9485 22.7083 59.071C22.7432 59.1648 22.8058 59.2457 22.8877 59.3032C22.9697 59.3606 23.0671 59.3919 23.1671 59.3928C23.23 59.3924 23.2921 59.3796 23.3499 59.3551L25.3563 58.5128C25.4764 58.4587 25.571 58.3604 25.6206 58.2383C25.6702 58.1163 25.6708 57.9798 25.6224 57.8573C25.5873 57.7639 25.5246 57.6835 25.4426 57.6267C25.3606 57.57 25.2633 57.5395 25.1636 57.5394Z" fill="#FCCC00"/>
<path d="M81.7552 64.9709C81.7094 64.9164 81.6522 64.8725 81.5877 64.8424C81.5233 64.8122 81.453 64.7964 81.3818 64.7961H81.3162C81.2187 64.81 81.1278 64.8537 81.056 64.9212C80.9618 65.0132 80.9057 65.1373 80.8991 65.2688C80.8925 65.4003 80.9357 65.5294 81.0202 65.6304L83.1815 68.1989C83.2273 68.2535 83.2844 68.2975 83.3489 68.3277C83.4134 68.3579 83.4838 68.3736 83.555 68.3738C83.676 68.3734 83.7924 68.3273 83.8808 68.2446C83.975 68.1527 84.031 68.0285 84.0376 67.8971C84.0443 67.7656 84.001 67.6364 83.9165 67.5355L81.7552 64.9709Z" fill="#FCCC00"/>
<path d="M89.5974 61.1092L86.7249 59.079C86.6441 59.0203 86.5467 58.989 86.4468 58.9896C86.425 58.9876 86.4031 58.9876 86.3813 58.9896C86.3113 58.9995 86.2443 59.0247 86.1853 59.0635C86.1262 59.1023 86.0764 59.1537 86.0396 59.214C85.9697 59.3258 85.9451 59.4601 85.971 59.5893C85.9968 59.7186 86.0711 59.8331 86.1786 59.9093L89.0511 61.9395C89.1312 61.9981 89.228 62.0295 89.3272 62.0289C89.4095 62.0289 89.4904 62.0077 89.562 61.9673C89.6337 61.927 89.6938 61.8688 89.7365 61.7985C89.8032 61.6869 89.826 61.5544 89.8003 61.4269C89.7745 61.2994 89.7022 61.1861 89.5974 61.1092Z" fill="#FCCC00"/>
<path d="M106.66 56.6553L100.104 53.9993C100.047 53.9757 99.9854 53.9635 99.9234 53.9636H99.8598C99.7695 53.9753 99.6843 54.0123 99.614 54.0703C99.5438 54.1283 99.4912 54.2049 99.4625 54.2913C99.4192 54.4154 99.4247 54.5513 99.4778 54.6716C99.5309 54.7918 99.6277 54.8873 99.7486 54.9389L106.306 57.5949C106.363 57.6185 106.423 57.6307 106.485 57.6306C106.586 57.6297 106.684 57.5972 106.766 57.5378C106.848 57.4783 106.909 57.3948 106.942 57.2989C106.984 57.1758 106.978 57.0414 106.926 56.9223C106.873 56.8032 106.779 56.7079 106.66 56.6553Z" fill="#FCCC00"/>
<path d="M109.951 57.9922L108.163 57.1976C108.101 57.1709 108.033 57.1574 107.965 57.1578H107.901C107.814 57.1708 107.733 57.2067 107.665 57.2619C107.597 57.3171 107.544 57.3896 107.514 57.4717C107.468 57.5947 107.469 57.7306 107.519 57.8521C107.569 57.9737 107.663 58.072 107.782 58.1273L109.57 58.9119C109.633 58.9388 109.7 58.9523 109.769 58.9517C109.867 58.9511 109.963 58.9203 110.044 58.8635C110.124 58.8067 110.186 58.7265 110.219 58.6338C110.261 58.5126 110.257 58.3802 110.208 58.2619C110.158 58.1436 110.067 58.0476 109.951 57.9922Z" fill="#FCCC00"/>
<path d="M94.2538 64.7226L92.7182 63.5108C92.6489 63.4574 92.5667 63.4231 92.4799 63.4115H92.4242C92.3461 63.4117 92.2692 63.4307 92.2 63.467C92.1308 63.5034 92.0714 63.5559 92.0269 63.6201C91.951 63.7273 91.9187 63.8593 91.9364 63.9895C91.9541 64.1197 92.0205 64.2383 92.1223 64.3213L93.6559 65.5331C93.7398 65.6003 93.8443 65.6368 93.9518 65.6364C94.03 65.6353 94.1068 65.6157 94.1759 65.5791C94.245 65.5424 94.3044 65.4899 94.3491 65.4258C94.4252 65.3183 94.4576 65.1859 94.4399 65.0554C94.4222 64.9249 94.3557 64.806 94.2538 64.7226Z" fill="#FCCC00"/>
<path d="M102.854 36.4607C102.801 36.5361 102.769 36.6245 102.761 36.7165C102.754 36.8085 102.772 36.9008 102.812 36.9837C102.853 37.0665 102.915 37.137 102.992 37.1876C103.069 37.2381 103.159 37.267 103.251 37.2712H103.317L106.312 36.854C106.435 36.8301 106.545 36.762 106.62 36.6626C106.696 36.5633 106.733 36.4396 106.724 36.3149C106.714 36.1903 106.66 36.0734 106.57 35.9864C106.48 35.8994 106.362 35.8483 106.237 35.8429H106.171L103.176 36.2601C103.111 36.2696 103.049 36.2923 102.994 36.3269C102.938 36.3614 102.891 36.4069 102.854 36.4607Z" fill="#FCCC00"/>
<path d="M107.801 35.7713C107.726 35.8794 107.694 36.0121 107.712 36.1428C107.727 36.2626 107.785 36.373 107.874 36.4537C107.964 36.5344 108.08 36.5799 108.201 36.5818H108.266L110.35 36.2918C110.415 36.2827 110.478 36.2603 110.534 36.2262C110.59 36.192 110.638 36.1467 110.676 36.0932C110.751 35.9857 110.783 35.8537 110.765 35.7237C110.75 35.6038 110.692 35.4934 110.603 35.4125C110.513 35.3316 110.397 35.2855 110.277 35.2827C110.255 35.2807 110.233 35.2807 110.211 35.2827L108.127 35.5727C108.062 35.5813 108 35.6035 107.943 35.6377C107.887 35.6719 107.839 35.7174 107.801 35.7713Z" fill="#FCCC00"/>
<path d="M101.626 42.9883L106.32 43.322H106.354C106.48 43.32 106.601 43.2694 106.691 43.1805C106.781 43.0917 106.833 42.9716 106.837 42.8453C106.844 42.7141 106.801 42.585 106.715 42.4853C106.63 42.3856 106.508 42.323 106.378 42.3109L101.686 41.9772H101.65C101.628 41.9752 101.606 41.9752 101.584 41.9772C101.47 41.9951 101.366 42.0521 101.29 42.1383C101.213 42.2246 101.169 42.3348 101.165 42.45C101.157 42.582 101.2 42.7121 101.286 42.8126C101.372 42.9131 101.494 42.9762 101.626 42.9883Z" fill="#FCCC00"/>
<path d="M99.7905 48.169L108.191 49.3947H108.263C108.383 49.3924 108.499 49.346 108.587 49.2644C108.676 49.1828 108.732 49.0715 108.744 48.9517C108.759 48.821 108.724 48.6894 108.645 48.584C108.567 48.4786 108.45 48.4075 108.321 48.3855L99.9177 47.1598C99.8945 47.1578 99.8713 47.1578 99.8481 47.1598H99.7846C99.6765 47.1771 99.5771 47.2294 99.5017 47.3088C99.4263 47.3881 99.3791 47.49 99.3674 47.5989C99.3507 47.7301 99.3854 47.8628 99.4642 47.9691C99.5431 48.0753 99.66 48.147 99.7905 48.169Z" fill="#FCCC00"/>
<path d="M112.239 48.9696L110.078 48.7073C110.059 48.7053 110.039 48.7053 110.02 48.7073H109.955C109.845 48.7244 109.744 48.778 109.668 48.8594C109.593 48.9409 109.547 49.0455 109.538 49.1563C109.525 49.2873 109.563 49.4182 109.644 49.5221C109.725 49.6259 109.842 49.6948 109.973 49.7145L112.134 49.9767H112.192C112.314 49.9755 112.432 49.928 112.522 49.8437C112.611 49.7594 112.666 49.6444 112.674 49.5218C112.686 49.3915 112.648 49.2616 112.567 49.1589C112.486 49.0561 112.369 48.9883 112.239 48.9696Z" fill="#FCCC00"/>
<path d="M99.697 7.45253C99.677 7.44359 99.6562 7.43646 99.635 7.43123C99.5158 7.40762 99.3922 7.43055 99.2895 7.4953L95.9086 9.61482C95.7985 9.68576 95.719 9.79548 95.686 9.92224C95.653 10.049 95.6688 10.1835 95.7302 10.2992C95.7877 10.4063 95.8834 10.4879 95.9983 10.5278C96.0658 10.5507 96.1376 10.5583 96.2085 10.5499C96.2793 10.5415 96.3474 10.5174 96.4077 10.4794L99.786 8.36739C99.8962 8.29588 99.9755 8.18563 100.008 8.05843C100.041 7.93124 100.025 7.79636 99.9631 7.68049C99.9064 7.57359 99.8113 7.49214 99.697 7.45253Z" fill="#FCCC00"/>
<path d="M92.7963 20.375L92.7343 20.3537C92.6521 20.3384 92.5674 20.3448 92.4885 20.3722L89.7604 21.3066C89.637 21.3517 89.5353 21.442 89.4759 21.5593C89.4165 21.6765 89.4039 21.8119 89.4405 21.9381C89.4614 22.0137 89.5002 22.0832 89.5536 22.1407C89.607 22.1981 89.6734 22.2419 89.7472 22.2682C89.8475 22.3024 89.9563 22.3021 90.0563 22.2673L92.7844 21.3329C92.9078 21.2878 93.0095 21.1975 93.0689 21.0802C93.1283 20.963 93.1409 20.8275 93.1042 20.7013C93.0827 20.6263 93.0435 20.5575 92.9899 20.5007C92.9363 20.4439 92.8699 20.4008 92.7963 20.375Z" fill="#FCCC00"/>
<path d="M100.899 18.6511C101.022 18.6059 101.124 18.5158 101.184 18.3988C101.243 18.2818 101.256 18.1465 101.221 18.0201C101.199 17.9446 101.161 17.8752 101.107 17.8178C101.054 17.7604 100.988 17.7166 100.914 17.69C100.894 17.6811 100.873 17.674 100.852 17.6688C100.77 17.6532 100.686 17.659 100.607 17.6854L93.9034 19.9869C93.78 20.032 93.6783 20.1224 93.6189 20.2396C93.5595 20.3568 93.5469 20.4923 93.5835 20.6185C93.6044 20.6941 93.6432 20.7635 93.6966 20.821C93.7499 20.8784 93.8164 20.9222 93.8902 20.9486C93.9904 20.9834 94.0994 20.983 94.1993 20.9476L100.899 18.6511Z" fill="#FCCC00"/>
<path d="M102.112 18.1892C102.216 18.2251 102.33 18.2233 102.433 18.1839L104.263 17.4977C104.385 17.4494 104.484 17.3567 104.541 17.2383C104.597 17.1199 104.607 16.9844 104.568 16.8591C104.545 16.7854 104.505 16.7183 104.451 16.6632C104.397 16.6081 104.33 16.5666 104.257 16.5421L104.195 16.5208C104.109 16.5039 104.019 16.5118 103.937 16.5436L102.108 17.2406C101.986 17.2888 101.886 17.3815 101.83 17.4999C101.773 17.6184 101.763 17.7538 101.802 17.8792C101.826 17.9514 101.867 18.017 101.92 18.0708C101.974 18.1246 102.04 18.1651 102.112 18.1892Z" fill="#FCCC00"/>
<path d="M93.1321 27.2979C93.1368 27.396 93.1706 27.4905 93.2291 27.5693C93.2877 27.6482 93.3684 27.7078 93.461 27.7406C93.5258 27.7626 93.5943 27.7711 93.6625 27.7657L102.119 26.9948C102.25 26.9802 102.37 26.9157 102.454 26.8148C102.538 26.7139 102.581 26.5842 102.572 26.453C102.568 26.3547 102.534 26.26 102.475 26.181C102.417 26.1021 102.336 26.0426 102.243 26.0102C102.223 26.0013 102.202 25.9942 102.181 25.9889C102.137 25.9799 102.091 25.9778 102.046 25.9827L93.5907 26.7517C93.4583 26.7654 93.3364 26.8301 93.2508 26.932C93.1653 27.0339 93.1227 27.1651 93.1321 27.2979Z" fill="#FCCC00"/>
<path d="M103.702 26.7489C103.762 26.7698 103.826 26.7781 103.889 26.7732L106.061 26.6284C106.192 26.6163 106.313 26.5541 106.4 26.4547C106.486 26.3554 106.531 26.2265 106.525 26.0949C106.522 25.9946 106.489 25.8975 106.43 25.8165C106.371 25.7354 106.289 25.6742 106.194 25.6408L106.134 25.6202C106.093 25.6126 106.051 25.6103 106.01 25.6134L103.839 25.7582C103.708 25.7703 103.586 25.8325 103.5 25.9319C103.413 26.0312 103.368 26.1601 103.374 26.2917C103.376 26.3922 103.408 26.4898 103.467 26.5715C103.526 26.6532 103.608 26.7151 103.702 26.7489Z" fill="#FCCC00"/>
<path d="M56.3916 38.354C56.3916 38.354 43.1139 37.758 39.1508 31.2205C39.1508 34.7961 40.74 37.166 40.74 37.166C40.74 37.166 38.7535 38.3579 35.9844 36.5701C37.369 43.1096 51.6379 42.5157 56.3916 38.354Z" fill="#2C1475"/>
<path d="M69.1445 37.6944C69.1445 37.6944 82.4222 37.0985 86.3873 30.559C86.3873 34.1346 84.7981 36.5045 84.7981 36.5045C84.7981 36.5045 86.7846 37.6964 89.5538 35.9086C88.1771 42.4501 74.2975 43.1096 69.1445 37.6944Z" fill="#2C1475"/>
<path d="M62.4039 37.8911C62.4039 37.8911 56.8556 31.5502 50.3161 31.3516C48.1309 29.7624 50.912 26.1986 50.912 26.1986C50.912 26.1986 60.4234 25.2093 62.4039 37.8911Z" fill="black"/>
<path d="M52.3006 26.1986C52.3006 26.1986 43.5799 32.1442 62.4059 37.8911C61.4126 39.4803 51.3093 40.6722 47.1476 35.3087C43.703 30.8907 46.7503 25.6047 52.3006 26.1986Z" fill="#432392"/>
<path d="M61.9414 37.8911C61.9414 37.8911 67.4917 31.5502 74.0312 31.3516C76.2163 29.7624 73.4353 26.1986 73.4353 26.1986C73.4353 26.1986 63.9239 25.2093 61.9414 37.8911Z" fill="black"/>
<path d="M72.0487 26.1986C72.0487 26.1986 80.7694 32.1442 61.9414 37.8911C62.9347 39.4803 73.0399 40.6722 77.2016 35.3087C80.6462 30.8907 77.5989 25.6047 72.0487 26.1986Z" fill="#432392"/>
<path d="M46.0234 71.5164L64.7859 66.4946L79.317 70.4596L66.5459 73.8943L46.0234 71.5164Z" fill="#FF7606"/>
<path d="M46.0218 71.5164L41.002 49.0552L62.6686 40.8649L64.7842 66.4946L46.0218 71.5164Z" fill="#FFC801"/>
<path d="M84.6028 50.112L62.6699 40.8649L64.7855 66.4946L79.3167 70.4596L84.6028 50.112Z" fill="#FFB001"/>
<path d="M36.7754 45.3563L38.6248 50.3762L62.6693 40.8649L62.1409 35.0504L36.7754 45.3563Z" fill="#FFB001"/>
<path d="M62.6693 40.8649L41.0801 49.4048L41.8786 52.9725L62.6693 40.8649Z" fill="#FF8603"/>
<path d="M84.6028 50.112L62.6699 40.8649L83.6989 53.5903L84.6028 50.112Z" fill="#FF4808"/>
<path d="M88.3007 45.7973L62.1406 35.0504L62.669 40.8649L86.4513 50.9046L88.3007 45.7973Z" fill="#FF8603"/>
<path d="M52.275 39.0154L46.9473 41.0635L53.2881 69.5995L57.8253 68.4334L52.275 39.0154Z" fill="#432392"/>
<path d="M82.0253 43.199L75.75 40.6006L69.9355 68.0142L73.9006 69.0055L82.0253 43.199Z" fill="#2C1475"/>
<path d="M65.0488 67.8156L66.3699 73.2784L77.1148 70.4596L65.0488 67.8156Z" fill="#FF4808"/>
<path d="M69.9351 68.0142L56.5918 72.7043L58.9696 73.0361L73.9001 69.0055L69.9351 68.0142Z" fill="black"/>
<path d="M57.8262 68.4354C57.3197 68.4791 53.2891 69.6014 53.2891 69.6014L70.3332 72.905L73.5116 72.0468L57.8262 68.4354Z" fill="black"/>
<path d="M61.3486 43.7711L63.5953 65.702L59.8965 67.023L61.3486 43.7711Z" fill="#FFE603"/>
<path d="M8.60257 2.42685L7.4931 5.09226L9.06133 7.51577L6.18424 7.28678L4.36335 9.52502L3.69377 6.71794L1.0001 5.67937L3.46344 4.17377L3.62029 1.29165L5.81366 3.16981L8.60257 2.42685Z" fill="#FF4808"/>
<path d="M128.39 10.9981L125.533 10.4368L123.449 12.4727L123.101 9.58034L120.52 8.2275L123.163 7.00336L123.652 4.12999L125.634 6.2664L128.516 5.8429L127.098 8.38865L128.39 10.9981Z" fill="#2C1475"/>
<path d="M105.441 30.0408L105.697 28.9463L104.943 28.114L106.064 28.0199L106.622 27.0438L107.057 28.0818L108.157 28.3104L107.306 29.0452L107.428 30.1626L106.465 29.5778L105.441 30.0408Z" fill="#2C1475"/>
<path d="M119.585 27.0328L119.138 25.6297L117.731 25.2029L118.927 24.3449L118.9 22.8741L120.083 23.7468L121.475 23.2669L121.011 24.6617L121.897 25.8358L120.426 25.8261L119.585 27.0328Z" fill="#432392"/>
<path d="M15.5793 14.4309L15.7795 16.951L17.9689 18.2158L15.6347 19.1837L15.1084 21.6571L13.4648 19.7362L10.9517 20.0006L12.2722 17.8441L11.2433 15.5347L13.7024 16.1235L15.5793 14.4309Z" fill="#2C1475"/>
<path d="M104.55 64.0512L103.08 63.7492L101.998 64.7881L101.831 63.2983L100.508 62.5891L101.875 61.9693L102.139 60.4933L103.15 61.6018L104.636 61.3972L103.895 62.7003L104.55 64.0512Z" fill="white"/>
<path d="M15.4039 49.4977H15.4695L18.4651 49.0805C18.5891 49.0586 18.7006 48.9915 18.778 48.8922C18.8553 48.7929 18.8931 48.6683 18.884 48.5428C18.8748 48.4172 18.8194 48.2994 18.7284 48.2124C18.6375 48.1253 18.5175 48.075 18.3916 48.0714C18.3698 48.0694 18.3478 48.0694 18.326 48.0714L15.3304 48.4885C15.2654 48.4975 15.2029 48.5198 15.1469 48.554C15.0908 48.5882 15.0424 48.6335 15.0046 48.6872C14.9288 48.7952 14.8969 48.928 14.9152 49.0587C14.9308 49.1781 14.9887 49.2881 15.0783 49.3686C15.168 49.4491 15.2835 49.4949 15.4039 49.4977Z" fill="#FCCC00"/>
<path d="M13.8428 49.5654C13.9183 49.458 13.9502 49.3259 13.9322 49.1959C13.9178 49.075 13.8602 48.9634 13.7701 48.8816C13.6799 48.7998 13.5632 48.7534 13.4415 48.7509C13.4197 48.749 13.3978 48.749 13.376 48.7509L11.2921 49.0409C11.2272 49.0502 11.1648 49.0725 11.1088 49.1067C11.0528 49.1409 11.0043 49.1861 10.9663 49.2396C10.8903 49.3475 10.859 49.4806 10.8789 49.6111C10.8938 49.7309 10.9514 49.8413 11.0412 49.9219C11.131 50.0026 11.2469 50.0481 11.3676 50.0501H11.4332L13.523 49.766C13.587 49.7557 13.6483 49.7326 13.7032 49.6981C13.7581 49.6636 13.8056 49.6185 13.8428 49.5654Z" fill="#FCCC00"/>
<path d="M26.0377 32.4498L23.3639 31.3691C23.3073 31.3455 23.2465 31.3333 23.1851 31.3334H23.1196C23.0292 31.3452 22.9441 31.3821 22.8738 31.4401C22.8035 31.4981 22.751 31.5747 22.7223 31.6611C22.679 31.7852 22.6845 31.9211 22.7376 32.0414C22.7907 32.1616 22.8875 32.2572 23.0083 32.3087L25.6802 33.3894C25.7375 33.4131 25.7989 33.4252 25.8609 33.4252C25.9619 33.4241 26.0599 33.3916 26.1415 33.3321C26.223 33.2726 26.284 33.1892 26.3158 33.0934C26.3585 32.9708 26.3536 32.8366 26.3021 32.7175C26.2506 32.5983 26.1562 32.5028 26.0377 32.4498Z" fill="#FCCC00"/>
<path d="M15.0575 29.1919L21.6229 31.8479C21.6795 31.8715 21.7403 31.8837 21.8016 31.8836C21.9028 31.8827 22.0012 31.8502 22.0831 31.7908C22.165 31.7313 22.2263 31.6478 22.2585 31.5519C22.3012 31.4275 22.2952 31.2916 22.2418 31.1715C22.1883 31.0513 22.0914 30.9559 21.9705 30.9043L15.4051 28.2483C15.3485 28.2247 15.2877 28.2125 15.2263 28.2126H15.1608C15.0705 28.2244 14.9853 28.2614 14.915 28.3193C14.8447 28.3773 14.7922 28.4539 14.7635 28.5404C14.7195 28.6659 14.7255 28.8036 14.7803 28.9249C14.835 29.0462 14.9342 29.1418 15.0575 29.1919Z" fill="#FCCC00"/>
<path d="M11.7627 27.8589L13.5506 28.6416C13.6129 28.6699 13.6808 28.6842 13.7492 28.6833C13.8481 28.6826 13.9444 28.6516 14.025 28.5944C14.1057 28.5372 14.1668 28.4566 14.2002 28.3635C14.2461 28.2394 14.2426 28.1025 14.1905 27.9809C14.1384 27.8593 14.0416 27.7623 13.9201 27.71L12.1322 26.9154C12.0698 26.8874 12.0019 26.8738 11.9336 26.8756C11.9118 26.8737 11.8898 26.8737 11.868 26.8756C11.7813 26.8886 11.6996 26.9245 11.6315 26.9797C11.5634 27.0349 11.5113 27.1073 11.4807 27.1895C11.4316 27.3159 11.4337 27.4564 11.4863 27.5813C11.5389 27.7062 11.6381 27.8057 11.7627 27.8589Z" fill="#FCCC00"/>
<path d="M20.0288 43.8701H20.0626C20.1892 43.8682 20.3101 43.8175 20.4004 43.7288C20.4906 43.64 20.5433 43.5199 20.5473 43.3934C20.5551 43.2619 20.5113 43.1325 20.4252 43.0327C20.3392 42.933 20.2177 42.8707 20.0865 42.859L15.3944 42.5253H15.3606C15.3388 42.5233 15.3168 42.5233 15.295 42.5253C15.1812 42.5424 15.0769 42.5989 15.0003 42.6849C14.9237 42.7709 14.8797 42.881 14.8759 42.9961C14.8681 43.1278 14.9118 43.2574 14.9978 43.3575C15.0838 43.4575 15.2054 43.5203 15.3368 43.5324L20.0288 43.8701Z" fill="#FCCC00"/>
<path d="M22.3452 38.2443C22.3613 38.1136 22.3263 37.9817 22.2474 37.8762C22.1686 37.7707 22.052 37.6997 21.922 37.6782L13.5212 36.4525H13.4516C13.4298 36.4506 13.4079 36.4506 13.3861 36.4525C13.2781 36.4688 13.1787 36.5206 13.1035 36.5998C13.0283 36.6789 12.9816 36.7809 12.9709 36.8896C12.9542 37.0201 12.9888 37.152 13.0673 37.2575C13.1458 37.3631 13.2622 37.4341 13.392 37.4557L21.7949 38.6814C21.818 38.6833 21.8413 38.6833 21.8644 38.6814C21.9839 38.6792 22.0986 38.6337 22.187 38.5533C22.2755 38.4729 22.3317 38.3631 22.3452 38.2443Z" fill="#FCCC00"/>
<path d="M11.6916 37.1438C11.8141 37.1421 11.9315 37.0948 12.0208 37.011C12.1102 36.9272 12.1649 36.813 12.1743 36.6908C12.1874 36.5588 12.1487 36.4269 12.0664 36.3228C11.9842 36.2187 11.8648 36.1505 11.7333 36.1326L9.57201 35.8704H9.5144H9.44885C9.339 35.8867 9.23792 35.9398 9.16214 36.021C9.08637 36.1022 9.04038 36.2067 9.03169 36.3174C9.01902 36.4484 9.05706 36.5793 9.13799 36.6832C9.21891 36.787 9.33657 36.8559 9.46673 36.8756L11.628 37.1378L11.6916 37.1438Z" fill="#FCCC00"/>
<path d="M8.05464 25.201L8.40029 26.7922L9.90606 27.41L8.49962 28.2284L8.37844 29.8514L7.16271 28.7687L5.58146 29.1541L6.23899 27.6642L5.38281 26.2777L7.0018 26.4425L8.05464 25.201Z" fill="#FF4808"/>
<path d="M9.44308 45.2169L8.67034 46.6253L9.39143 48.0596L7.81416 47.7596L6.67391 48.8899L6.4693 47.2968L5.04102 46.5618L6.49513 45.8764L6.75337 44.2912L7.85389 45.4612L9.44308 45.2169Z" fill="#2C1475"/>
<path d="M66.5932 16.0466C65.6666 19.4746 62.1471 21.4911 58.7313 20.5594C55.3155 19.6276 53.2964 16.0884 54.2299 12.6604C55.1564 9.23239 58.676 7.21593 62.0918 8.14767C65.5076 9.08637 67.5197 12.6187 66.5932 16.0466Z" fill="#FFFEEE"/>
<path d="M66.7338 16.436C65.8073 19.8501 62.3292 21.8665 58.9618 20.9417C55.5944 20.017 53.6099 16.5055 54.5296 13.0914C55.4561 9.67736 58.9342 7.6609 62.3016 8.58569C65.6759 9.51048 67.6535 13.0289 66.7338 16.436Z" fill="#E58824"/>
<path d="M66.601 16.1578C65.6952 19.5024 62.231 21.4632 58.8636 20.5384C55.4962 19.6136 53.4978 16.1578 54.4037 12.8133C55.3095 9.46873 58.7737 7.50789 62.1411 8.43268C65.5085 9.35748 67.5068 12.8133 66.601 16.1578Z" fill="#FEDD1A"/>
<path d="M54.3828 12.8412C55.4338 9.37148 58.8911 7.5358 62.141 8.43278C65.4393 9.34367 67.4929 12.7856 66.6078 16.1857L54.3828 12.8412Z" fill="#F9CB0E"/>
<path d="M65.2947 15.7824C64.5825 18.4038 61.8719 19.9405 59.2306 19.2174C56.5892 18.4942 55.0265 15.7824 55.7318 13.161C56.444 10.5396 59.1545 9.00291 61.7959 9.72606C64.4373 10.4492 66.0069 13.161 65.2947 15.7824Z" fill="#D87E27"/>
<path d="M65.2867 16.0536C64.5953 18.6125 61.9193 20.1144 59.3125 19.3982C56.7057 18.682 55.1568 16.0328 55.8483 13.474C56.5398 10.9151 59.2157 9.41321 61.8225 10.1294C64.4293 10.8386 65.9851 13.4948 65.2867 16.0536Z" fill="#FBF3CD"/>
<path d="M65.1917 15.7963C64.5141 18.2926 61.8865 19.7458 59.3212 19.0435C56.7559 18.3412 55.2208 15.7477 55.8985 13.2584C56.5761 10.7621 59.2036 9.30887 61.769 10.0112C64.3343 10.7065 65.8693 13.3001 65.1917 15.7963Z" fill="#FCB426"/>
<path opacity="0.2" d="M55.9176 13.3278C55.9107 13.3278 55.9107 13.3278 55.9176 13.3278C55.2469 15.7963 56.775 18.362 59.3334 19.0574C61.8849 19.7596 64.4987 18.3273 65.1625 15.8588C65.1625 15.8588 65.1625 15.8588 65.1625 15.8519L55.9176 13.3278Z" fill="#F6942C"/>
<path d="M61.587 11.0403L60.695 10.8734L60.5844 11.5062C59.4435 11.4714 58.7796 11.972 58.6137 12.8899C58.5515 13.2584 58.6068 13.5991 58.7935 13.912C58.9663 14.1971 59.3674 14.4891 60.0035 14.7812L59.6993 16.4847C59.2291 16.304 58.8004 15.8033 58.7451 15.2331L57.8047 15.845C58.0467 16.6169 58.5446 17.041 59.4988 17.3539L59.3466 18.1188L60.3216 18.3204L60.4461 17.5556C61.0131 17.5903 61.4902 17.4513 61.8428 17.2218C62.2231 16.9715 62.4651 16.589 62.5481 16.1162C62.6103 15.7825 62.555 15.4348 62.4444 15.1567C62.3338 14.8785 62.1816 14.6769 62.0019 14.5587C61.8359 14.4474 61.5178 14.2736 61.0546 14.0372L61.3242 12.5283C61.6354 12.6604 61.8221 12.9386 61.8843 13.3488L62.8247 13.2375C62.7279 12.4727 62.2923 11.9859 61.4971 11.687L61.587 11.0403ZM59.5956 12.9177C59.6371 12.6813 59.7546 12.5214 59.9413 12.431C60.0865 12.3614 60.2525 12.3336 60.4322 12.3475L60.1833 13.7451C59.7339 13.5504 59.5333 13.2723 59.5956 12.9177ZM61.5524 15.998C61.5109 16.2483 61.3795 16.4291 61.1721 16.5473C60.9992 16.6447 60.8056 16.6864 60.5913 16.6725L60.8748 15.0732C61.3934 15.3027 61.6216 15.6156 61.5524 15.998Z" fill="#DB7F27"/>
<path d="M61.27 10.9707L60.378 10.8038L60.2674 11.4365C59.1265 11.4018 58.4627 11.9024 58.2967 12.8202C58.2276 13.1888 58.2898 13.5295 58.4765 13.8424C58.6494 14.1275 59.0504 14.4195 59.6866 14.7115L59.3823 16.4151C58.9121 16.2343 58.6425 15.8519 58.5871 15.2817L57.709 15.8797C57.951 16.6515 58.2276 16.9644 59.1818 17.2773L59.0297 18.0422L60.0046 18.2438L60.1291 17.479C60.6961 17.5137 61.1732 17.3747 61.5259 17.1452C61.9062 16.8949 62.1482 16.5125 62.2311 16.0396C62.2934 15.7059 62.2381 15.3582 62.1274 15.0801C62.0168 14.8019 61.8647 14.6003 61.6849 14.4821C61.5189 14.3708 61.2009 14.197 60.7376 13.9606L61.0073 12.4517C61.3184 12.5838 61.5051 12.862 61.5673 13.2722L62.5077 13.1609C62.4109 12.3961 61.9753 11.9093 61.1801 11.6104L61.27 10.9707ZM59.2786 12.848C59.3201 12.6116 59.4376 12.4517 59.6243 12.3613C59.7695 12.2918 59.9355 12.264 60.1153 12.2779L59.8663 13.6755C59.41 13.4808 59.2164 13.2027 59.2786 12.848ZM61.2354 15.9284C61.1939 16.1787 61.0626 16.3595 60.8551 16.4777C60.6823 16.575 60.4887 16.6168 60.2743 16.6028L60.5578 15.0036C61.0764 15.233 61.3046 15.5459 61.2354 15.9284Z" fill="#FFE93C"/>
<path d="M45.8785 5.29886C45.3633 7.20505 43.4062 8.32634 41.5068 7.80823C39.6073 7.29011 38.4846 5.32206 39.0037 3.41586C39.5189 1.50967 41.476 0.388384 43.3754 0.906497C45.2749 1.42848 46.3938 3.39267 45.8785 5.29886Z" fill="#FFFEEE"/>
<path d="M45.9564 5.51533C45.4411 7.41379 43.5071 8.53508 41.6346 8.02083C39.7621 7.50658 38.6586 5.554 39.17 3.65554C39.6852 1.75708 41.6192 0.635789 43.4917 1.15004C45.3681 1.66428 46.4677 3.62074 45.9564 5.51533Z" fill="#E58824"/>
<path d="M45.8824 5.36072C45.3787 7.22051 43.4523 8.31087 41.5798 7.79662C39.7073 7.28238 38.5961 5.36072 39.0998 3.50092C39.6035 1.64113 41.5298 0.550774 43.4023 1.06502C45.2748 1.57927 46.3861 3.50093 45.8824 5.36072Z" fill="#FEDD1A"/>
<path d="M39.0898 3.5164C39.6743 1.58701 41.5968 0.566247 43.4039 1.06503C45.238 1.57154 46.3799 3.48547 45.8878 5.37619L39.0898 3.5164Z" fill="#F9CB0E"/>
<path d="M45.1559 5.15192C44.7598 6.60959 43.2526 7.46409 41.7838 7.06198C40.315 6.65986 39.4461 5.15192 39.8383 3.69424C40.2343 2.23656 41.7415 1.38206 43.2103 1.78418C44.6791 2.1863 45.5519 3.69424 45.1559 5.15192Z" fill="#D87E27"/>
<path d="M45.1525 5.30274C44.768 6.72561 43.28 7.56078 41.8304 7.16253C40.3809 6.76428 39.5196 5.29114 39.9041 3.86826C40.2886 2.44538 41.7766 1.61021 43.2261 2.00847C44.6757 2.40285 45.5408 3.87986 45.1525 5.30274Z" fill="#FBF3CD"/>
<path d="M45.0985 5.15965C44.7217 6.54772 43.2606 7.35583 41.8341 6.96531C40.4076 6.57479 39.5541 5.13258 39.9309 3.74837C40.3077 2.36029 41.7688 1.55219 43.1953 1.94271C44.6217 2.32936 45.4753 3.77157 45.0985 5.15965Z" fill="#FCB426"/>
<path opacity="0.2" d="M39.9413 3.78705C39.9375 3.78705 39.9375 3.78705 39.9413 3.78705C39.5683 5.15966 40.4181 6.5864 41.8407 6.97306C43.2595 7.36357 44.7129 6.56707 45.082 5.19446C45.082 5.19446 45.082 5.19446 45.082 5.19059L39.9413 3.78705Z" fill="#F6942C"/>
<path d="M43.0954 2.51498L42.5994 2.42218L42.5379 2.77403C41.9034 2.7547 41.5343 3.03309 41.4421 3.54347C41.4074 3.7484 41.4382 3.93785 41.542 4.11185C41.6381 4.27037 41.8612 4.43277 42.2149 4.59516L42.0457 5.54246C41.7843 5.44193 41.5459 5.16354 41.5151 4.84649L40.9922 5.18674C41.1268 5.61592 41.4036 5.85178 41.9342 6.02577L41.8496 6.45109L42.3918 6.56322L42.461 6.1379C42.7763 6.15723 43.0416 6.0799 43.2377 5.95231C43.4491 5.81311 43.5837 5.60046 43.6298 5.33753C43.6645 5.15194 43.6337 4.95861 43.5722 4.80395C43.5107 4.64929 43.4261 4.53716 43.3261 4.47143C43.2338 4.40957 43.0569 4.31291 42.7993 4.18145L42.9493 3.34241C43.1223 3.41587 43.2261 3.57053 43.2607 3.79866L43.7836 3.7368C43.7298 3.31148 43.4876 3.04082 43.0454 2.87456L43.0954 2.51498ZM41.988 3.55894C42.0111 3.42747 42.0765 3.33854 42.1803 3.28828C42.261 3.24961 42.3533 3.23415 42.4533 3.24188L42.3149 4.01905C42.0649 3.91079 41.9534 3.75613 41.988 3.55894ZM43.0762 5.2718C43.0531 5.411 42.98 5.51153 42.8647 5.57726C42.7686 5.63139 42.6609 5.65459 42.5417 5.64685L42.6994 4.75756C42.9877 4.88515 43.1146 5.05914 43.0762 5.2718Z" fill="#DB7F27"/>
<path d="M42.9196 2.47628L42.4236 2.38348L42.3621 2.73534C41.7277 2.716 41.3586 2.99439 41.2663 3.50477C41.2278 3.7097 41.2624 3.89916 41.3662 4.07315C41.4624 4.23168 41.6854 4.39407 42.0391 4.55646L41.8699 5.50376C41.6085 5.40323 41.4585 5.19057 41.4278 4.87352L40.9395 5.20604C41.074 5.63522 41.2278 5.80922 41.7584 5.98321L41.6738 6.40852L42.216 6.52066L42.2852 6.09534C42.6005 6.11467 42.8658 6.03734 43.0619 5.90974C43.2734 5.77055 43.4079 5.55789 43.4541 5.29497C43.4887 5.10938 43.4579 4.91605 43.3964 4.76139C43.3349 4.60673 43.2503 4.4946 43.1503 4.42887C43.058 4.36701 42.8812 4.27034 42.6236 4.13888L42.7735 3.29985C42.9465 3.37331 43.0504 3.52797 43.085 3.7561L43.6079 3.69423C43.554 3.26892 43.3118 2.99826 42.8696 2.832L42.9196 2.47628ZM41.8123 3.52024C41.8353 3.38878 41.9007 3.29985 42.0045 3.24958C42.0853 3.21092 42.1775 3.19545 42.2775 3.20318L42.1391 3.98035C41.8853 3.87209 41.7777 3.71743 41.8123 3.52024ZM42.9004 5.2331C42.8773 5.3723 42.8043 5.47283 42.6889 5.53856C42.5928 5.59269 42.4851 5.61589 42.3659 5.60816L42.5236 4.71886C42.812 4.84645 42.9388 5.02045 42.9004 5.2331Z" fill="#FFE93C"/>
<path d="M91.8784 8.48269C91.1575 11.1498 88.4192 12.7187 85.7616 11.9937C83.104 11.2688 81.5331 8.51515 82.2594 5.84806C82.9802 3.18097 85.7186 1.61209 88.3762 2.33702C91.0338 3.06736 92.5993 5.8156 91.8784 8.48269Z" fill="#FFFEEE"/>
<path d="M91.9867 8.78563C91.2658 11.4419 88.5598 13.0108 85.9398 12.2913C83.3198 11.5717 81.7758 8.83973 82.4914 6.18346C83.2123 3.52719 85.9183 1.95831 88.5383 2.67783C91.1636 3.39735 92.7022 6.13477 91.9867 8.78563Z" fill="#E58824"/>
<path d="M91.8843 8.56918C91.1795 11.1714 88.4842 12.6969 85.8643 11.9774C83.2443 11.2579 81.6896 8.56918 82.3943 5.96701C83.0991 3.36484 85.7943 1.83924 88.4143 2.55876C91.0343 3.27828 92.589 5.96701 91.8843 8.56918Z" fill="#FEDD1A"/>
<path d="M82.3789 5.98873C83.1966 3.28918 85.8865 1.86096 88.415 2.55884C90.9812 3.26754 92.579 5.94545 91.8904 8.5909L82.3789 5.98873Z" fill="#F9CB0E"/>
<path d="M90.8669 8.2771C90.3128 10.3166 88.2039 11.5122 86.1488 10.9496C84.0937 10.387 82.8779 8.2771 83.4266 6.23756C83.9807 4.19802 86.0896 3.00243 88.1447 3.56506C90.1998 4.12769 91.421 6.23756 90.8669 8.2771Z" fill="#D87E27"/>
<path d="M90.8622 8.48812C90.3242 10.479 88.2422 11.6475 86.214 11.0903C84.1859 10.5331 82.9808 8.47189 83.5188 6.48104C84.0567 4.49019 86.1387 3.32165 88.1669 3.87887C90.1951 4.43068 91.4055 6.49727 90.8622 8.48812Z" fill="#FBF3CD"/>
<path d="M90.7867 8.28792C90.2595 10.2301 88.2152 11.3608 86.2193 10.8144C84.2234 10.268 83.029 8.25005 83.5563 6.3133C84.0835 4.37114 86.1278 3.24047 88.1237 3.78687C90.1196 4.32786 91.3139 6.34576 90.7867 8.28792Z" fill="#FCB426"/>
<path opacity="0.2" d="M83.574 6.36737C83.5686 6.36737 83.5686 6.36737 83.574 6.36737C83.0522 8.28789 84.2411 10.2842 86.2316 10.8251C88.2168 11.3715 90.2503 10.2571 90.7668 8.33658C90.7668 8.33658 90.7668 8.33658 90.7668 8.33117L83.574 6.36737Z" fill="#F6942C"/>
<path d="M87.9838 4.5876L87.2898 4.45776L87.2037 4.95007C86.316 4.92302 85.7996 5.31253 85.6705 6.02664C85.622 6.31337 85.6651 6.57845 85.8103 6.8219C85.9448 7.04371 86.2569 7.27092 86.7518 7.49814L86.5151 8.82357C86.1493 8.68291 85.8157 8.2934 85.7727 7.84978L85.041 8.32586C85.2293 8.92636 85.6167 9.25636 86.3591 9.49981L86.2407 10.0949L86.9993 10.2518L87.0961 9.6567C87.5372 9.68375 87.9084 9.57555 88.1828 9.39702C88.4787 9.20226 88.667 8.90472 88.7316 8.53684C88.78 8.27717 88.7369 8.00667 88.6509 7.79027C88.5648 7.57388 88.4464 7.41699 88.3066 7.32502C88.1774 7.23846 87.93 7.10322 87.5695 6.91928L87.7793 5.74532C88.0214 5.84811 88.1667 6.06451 88.2151 6.38369L88.9467 6.29714C88.8714 5.70205 88.5325 5.32335 87.9138 5.09072L87.9838 4.5876ZM86.4344 6.04828C86.4667 5.86434 86.5581 5.73992 86.7034 5.66959C86.8164 5.61549 86.9455 5.59385 87.0853 5.60467L86.8917 6.69206C86.542 6.54058 86.386 6.32419 86.4344 6.04828ZM87.9569 8.44487C87.9246 8.63963 87.8224 8.78029 87.661 8.87226C87.5265 8.948 87.3758 8.98046 87.2091 8.96964L87.4296 7.72536C87.8331 7.90388 88.0107 8.14733 87.9569 8.44487Z" fill="#DB7F27"/>
<path d="M87.7374 4.5334L87.0434 4.40356L86.9573 4.89587C86.0697 4.86882 85.5532 5.25833 85.4241 5.97244C85.3703 6.25917 85.4187 6.52425 85.564 6.7677C85.6984 6.98951 86.0105 7.21672 86.5054 7.44394L86.2687 8.76937C85.9029 8.62871 85.6931 8.33117 85.65 7.88755L84.9668 8.35281C85.1551 8.95331 85.3703 9.19675 86.1127 9.4402L85.9943 10.0353L86.7529 10.1922L86.8497 9.59709C87.2909 9.62414 87.6621 9.51594 87.9364 9.33741C88.2323 9.14265 88.4206 8.84511 88.4852 8.47723C88.5336 8.21756 88.4906 7.94706 88.4045 7.73067C88.3184 7.51427 88.2001 7.35738 88.0602 7.26541C87.9311 7.17885 87.6836 7.04361 87.3231 6.85967L87.533 5.68572C87.7751 5.7885 87.9203 6.0049 87.9687 6.32409L88.7004 6.23753C88.6251 5.64244 88.2861 5.26374 87.6675 5.03111L87.7374 4.5334ZM86.188 5.99408C86.2203 5.81014 86.3117 5.68572 86.457 5.61539C86.57 5.56129 86.6991 5.53965 86.839 5.55047L86.6453 6.63786C86.2902 6.48638 86.1396 6.26999 86.188 5.99408ZM87.7105 8.39067C87.6782 8.58543 87.576 8.72609 87.4146 8.81806C87.2801 8.8938 87.1295 8.92626 86.9627 8.91544L87.1833 7.67116C87.5868 7.84968 87.7643 8.09313 87.7105 8.39067Z" fill="#FFE93C"/>
<path d="M69.5191 18.4931C69.5385 18.4412 69.98 17.6829 70.5579 16.8533C73.2328 13.0035 77.1997 9.29619 81.8483 9.43878L81.8548 9.41285C79.7512 9.17953 77.6931 9.7434 75.8817 10.735C72.8951 12.3424 69.993 15.4015 68.4023 17.7542L69.5191 18.4931Z" fill="#FCC13F"/>
<path d="M43.6197 26.641C43.5926 26.5587 42.8978 25.3601 42.0044 24.0609C37.8626 17.995 31.7084 12.1487 24.4895 12.3683L24.4805 12.3225C27.747 11.9565 30.9414 12.844 33.7478 14.4085C38.386 16.9429 42.8978 21.7645 45.3613 25.4791L43.6197 26.641Z" fill="#FCC13F"/>
</svg>
