<svg height="512" viewBox="0 0 60 61" width="512" xmlns="http://www.w3.org/2000/svg"><g id="Page-1" fill="none" fill-rule="evenodd"><g id="045---Prayer-Hands" fill-rule="nonzero" transform="translate(0 -1)"><path id="Shape" d="m30 10.32v36.68c0 6-2 7-4 8-1.0922703.5166441-2.1029938 1.1904597-3 2-.33 0-.66-.01-.97-.02-9.1-.51-10.03-7.98-10.03-7.98 9-5 8-13 8-17 .1425396-2.395334.8927856-4.7149021 2.18-6.74.5419923-.909108.8766203-1.9266503.98-2.98l.72-7.91 1.59-4.78c.2604197-.77579298.9101346-1.35711692 1.71-1.53.1636109-.040235.3315149-.06038349.5-.06 1.2808436.00110275 2.3188972 1.03915643 2.32 2.32z" fill="#f9c795"/><path id="Shape" d="m29 10.32v36.68c0 6-2 7-4 8-1.079554.5146419-2.0797328 1.1814278-2.97 1.98-9.1-.51-10.03-7.98-10.03-7.98 9-5 8-13 8-17 .1425396-2.395334.8927856-4.7149021 2.18-6.74.5419923-.909108.8766203-1.9266503.98-2.98l.72-7.91 1.59-4.78c.2604197-.77579298.9101346-1.35711692 1.71-1.53 1.0635856.23008297 1.8219708 1.17181406 1.82 2.26z" fill="#fdd7ad"/><path id="Shape" d="m27.18 8.06c-.6316855.13793665-1.1761382.53538712-1.5 1.095.2085755.35287945.3190537.75508935.32 1.165v36.68c0 6-2 7-4 8-.896987.4433523-1.7449653.9796232-2.53 1.6.8398934.2053389 1.696786.3335381 2.56.383.8900743-.7996307 1.8902627-1.4674333 2.97-1.983 2-1 4-2 4-8v-36.68c.0019708-1.08818594-.7564144-2.02991703-1.82-2.26z" fill="#dfc49c"/><path id="Shape" d="m30 4.61v5.71c-.0035544-1.13852618-.8310614-2.10699336-1.9550919-2.28812852-1.1240305-.18113515-2.2138792.47835417-2.5749081 1.55812852l-1.59 4.78.9-9.99c.1148793-1.35324022 1.2519299-2.39009091 2.61-2.38 1.4410061.00110295 2.608897 1.16899391 2.61 2.61z" fill="#f9c795"/><path id="Shape" d="m23 57v1.01c.0000138 1.100676-.8893377 1.9944966-1.99 2l-18 .07c-.53216349.0026609-1.04344411-.2068776-1.42068246-.5822391-.37723835-.3753616-.58932419-.8855908-.58931754-1.4177609v-4.93c.0016555-.7293244.40018405-1.3999253 1.04-1.75 2.77155361-1.5198081 5.65292849-2.8301317 8.62-3.92.3063999-.1107754.6475555-.0653389.9142822.1217679s.4255792.4924222.4257178.8182321v.58s1 8 11 8z" fill="#02a9f4"/><path id="Shape" d="m36.12 14.37-1.59-4.78c-.3610289-1.07977435-1.4508776-1.73926367-2.5749081-1.55812852-1.1240305.18113516-1.9515375 1.14960234-1.9550919 2.28812852v-5.71c.001103-1.44100609 1.1689939-2.60889705 2.61-2.61 1.3580701-.01009091 2.4951207 1.02675978 2.61 2.38z" fill="#f9c795"/><path id="Shape" d="m48 49s-.93 7.47-10.03 7.98c-.31.01-.64.02-.97.02-.8970062-.8095403-1.9077297-1.4833559-3-2-2-1-4-2-4-8v-36.68c.0011028-1.28084357 1.0391564-2.31889725 2.32-2.32.1684851-.00038349.3363891.019765.5.06.7998654.17288308 1.4495803.75420702 1.71 1.53l1.59 4.78.72 7.91c.1033797 1.0533497.4380077 2.070892.98 2.98 1.2872144 2.0250979 2.0374604 4.344666 2.18 6.74 0 4-1 12 8 17z" fill="#f9c795"/><path id="Shape" d="m48 49s-.93 7.47-10.03 7.98c-.8902672-.7985722-1.890446-1.4653581-2.97-1.98-2-1-4-2-4-8v-36.68c-.0019708-1.08818594.7564144-2.02991703 1.82-2.26.7998654.17288308 1.4495803.75420702 1.71 1.53l1.59 4.78.72 7.91c.1033797 1.0533497.4380077 2.070892.98 2.98 1.2872144 2.0250979 2.0374604 4.344666 2.18 6.74 0 4-1 12 8 17z" fill="#fdd7ad"/><path id="Shape" d="m40 32c-.1425396-2.395334-.8927856-4.7149021-2.18-6.74-.5419923-.909108-.8766203-1.9266503-.98-2.98l-.72-7.91-1.59-4.78c-.2604197-.77579298-.9101346-1.35711692-1.71-1.53-.6316855.13793665-1.1761382.53538712-1.5 1.095.0857849.13743195.1574815.28317033.214.435l1.59 4.78.72 7.91c.1033797 1.0533497.4380077 2.070892.98 2.98 1.2858043 2.0254838 2.0346653 4.3450257 2.176 6.74 0 4-1 12 8 17-.7136958 3.816225-3.6666553 6.8205747-7.47 7.6.231.188.384.327.44.383 9.1-.513 10.03-7.983 10.03-7.983-9-5-8-13-8-17z" fill="#dfc49c"/><path id="Shape" d="m59 53.15v4.93c.0000067.5321701-.2120792 1.0423993-.5893175 1.4177609-.3772384.3753615-.888519.5849-1.4206825.5822391l-18-.07c-1.1006623-.0055034-1.9900138-.899324-1.99-2v-1.01c10 0 11-8 11-8v-.58c.0001386-.3258099.1589911-.6311253.4257178-.8182321s.6078823-.2325433.9142822-.1217679c2.9670715 1.0898683 5.8484464 2.4001919 8.62 3.92.639816.3500747 1.0383445 1.0206756 1.04 1.75z" fill="#02a9f4"/><path id="Shape" d="m58.448 50.525c-2.81871-1.5393283-5.746178-2.8705425-8.759-3.983-.9016351-.3449977-1.9201975.0182895-2.4.856-6.489-4.261-6.383-10.243-6.304-14.278.008-.4.015-.774.015-1.12-.134679-2.5764092-.933184-5.0742347-2.318-7.251-.4696419-.7806714-.7577469-1.656948-.843-2.564l-1.627-17.9c-.1223969-1.41520434-1.0655358-2.62612243-2.4076966-3.09129827-1.3421609-.46517584-2.8323761-.09762724-3.8043034.93829827-.9720602-1.03600053-2.4624815-1.40346096-3.8047131-.93804453s-2.2852388 1.67666387-2.4072869 3.09204453l-1.627 17.9c-.0852531.907052-.3733581 1.7833286-.843 2.564-1.3846523 2.1764739-2.1831506 4.673934-2.318 7.25 0 .346.007.72.015 1.12.079 4.035.187 10.017-6.307 14.277-.4809859-.836301-1.4985945-1.198824-2.4-.855-3.01216799 1.1132622-5.93924577 2.4444509-8.758 3.983-.95341121.5317378-1.54592775 1.53634-1.55 2.628v4.927c0 1.6568542 1.34314575 3 3 3h.014l18-.072c1.6511876-.009335 2.9857306-1.3487892 2.989-3v-.555c.7536214-.6079995 1.5734809-1.1289658 2.444-1.553 1.5375043-.5987372 2.8017796-1.7409617 3.553-3.21.7512204 1.4690383 2.0154957 2.6112628 3.553 3.21.8713326.4238502 1.69217.9444631 2.447 1.552v.556c.0032655 1.6508231 1.3372032 2.990118 2.988 3l18 .072h.012c1.6568542 0 3-1.3431458 3-3v-4.927c-.0040547-1.0921961-.5975111-2.0970953-1.552-2.628zm-25.835-47.525c.8363265-.00409366 1.5356218.63471496 1.607 1.468l.307 3.379c-.961454-.86669203-2.3414874-1.08971984-3.527-.57v-2.664c.001102-.89037846.7226215-1.61189805 1.613-1.613zm-5.226 0c.8903785.00110195 1.611898.72262154 1.613 1.613v2.664c-1.1859782-.51988964-2.5665592-.29644526-3.528.571l.308-3.38c.0718406-.83305701.7708589-1.47161257 1.607-1.468zm-6.387 56.008-18 .072c-.2635757-.0088724-.51519155-.1121449-.709-.291-.18796715-.1878711-.29278339-.4432482-.291-.709v-4.927c.00379836-.3680381.20557917-.7054859.528-.883 2.72668929-1.4875054 5.55819379-2.774249 8.472-3.85v.58c0 .017.009.031.01.048s0 .05 0 .076c.011.086 1.182 8.285 10.992 8.824v.06c.0000005.2655634-.1056308.5202209-.2936.7078148-.1879691.187594-.4428372.2927163-.7084.2921852zm4.549-4.9c-1.0465122.513655-2.028936 1.1486895-2.927 1.892-7.15-.157-9.04-4.772-9.5-6.492 8.115-4.883 7.969-12.359 7.89-16.423-.005-.385-.012-.752-.012-1.085.149105-2.2138269.8497092-4.3551731 2.038-6.229.6217694-1.0372697 1.0028005-2.2008668 1.115-3.405l.706-7.773 1.559-4.684c.202722-.61778266.8240243-.99694264 1.4661338-.89473233s1.1149792.65553942 1.1158662 1.30573233v36.68c0 5.382-1.6 6.181-3.447 7.105zm5.451-7.108v-36.68c.0009801-.64887604.4717312-1.20157697 1.1121837-1.30579629.6404525-.10421931 1.2621545.27070933 1.4688163.88579629l1.559 4.687.707 7.774c.1121995 1.2041332.4932306 2.3677303 1.115 3.405 1.189081 1.8752915 1.889717 4.018454 2.038 6.234 0 .333-.007.7-.015 1.081-.079 4.064-.226 11.54 7.89 16.423-.459 1.724-2.351 6.335-9.5 6.492-.899366-.7432253-1.8831434-1.3779312-2.931-1.891-1.844-.924-3.444-1.723-3.444-7.105zm27 11.08c0 .5522847-.4477153 1-1 1l-18-.072c-.5522847 0-1-.4477153-1-1v-.06c9.81-.539 10.982-8.738 10.992-8.824 0-.026 0-.05 0-.076s.008-.031.008-.048l-.007-.583c2.916319 1.0767049 5.7501779 2.3647922 8.479 3.854.322872.1765492.5248978.514024.528.882z" fill="#000"/></g></g></svg>