<?xml version="1.0" encoding="utf-8"?>
<!-- Generator: Adobe Illustrator 24.3.0, SVG Export Plug-In . SVG Version: 6.00 Build 0)  -->
<svg version="1.1" id="Layer_1" xmlns="http://www.w3.org/2000/svg" xmlns:xlink="http://www.w3.org/1999/xlink" x="0px" y="0px"
	 viewBox="0 0 489.9 494.8" style="enable-background:new 0 0 489.9 494.8;" xml:space="preserve">
<style type="text/css">
	.st0{fill:#FECB4D;}
	.st1{fill:#F38F0C;}
	.st2{fill:#664500;}
	.st3{fill:#B45005;}
</style>
<path class="st0" d="M263.8,439c-12.5,1-25.1,1-37.6,0c-1.3-2,0.1-3.8,0.5-5.7c7.3-29.3,2-55.7-18.2-78.5
	c-15-17-27.8-35.6-40.6-54.2c-2.9-4.2-5.8-8.5-8.9-12.6c-5-6.7-13.4-7.3-19.6-1.6c-4.3,4.1-5.1,8.4-1.8,15c4.5,8.9,8.7,18,13.6,26.6
	c3.5,6.1,6.4,12.4,9.5,18.7c1.3,2.6,2.4,5.4-1.4,7.1c-3.2,0.4-5.9-1.2-8.6-2.6c-19.7-15.6-38.8-31.7-58.3-47.6
	c-10-8.2-20.1-16.3-30-24.7c-3.3-2.8-7.1-4.5-11.5-2.5c-4.2,1.8-6.5,5-7.2,9.5c-0.6,3.8,1,6.8,3.8,9.3c8.4,7.5,17.3,14.5,26,21.7
	c13.8,11.3,27.4,22.7,41.2,33.8c1,0.8,1.9,1.8,3,2.7c2.3,1.9,2.2,3.8,0.5,6c-1,1.3-2,2.7-3.1,3.9c-2.4,2.7-4.7,2.9-7.7,0.5
	c-19.9-16.1-39.5-32.5-59.4-48.6c-2-1.6-4.7-2.8-4.9-6c-3.3-10.4-7.8-20.4-10.5-31c-13.1-50.5-10.1-99.8,11.3-147.5
	c24.9-55.4,66.1-94,122.6-116.2c19.6-7.7,39.9-12.1,61-13.6c49.4-3.7,95,7.6,136.5,34.4c45.7,29.6,76.7,70.9,91.8,123.1
	c14.7,50.9,11.6,101.1-9.8,149.9c-0.1,0.3,0.2,0.8,0.3,1.2c0.3,2.5-1.8,3.3-3.3,4.5c-19.4,16.1-39.1,31.8-58.5,48.1
	c-5.8,4.9-12.7,2.5-14.3-4.9c-0.6-2.8,1.7-3.8,3.3-5.1c10-8.3,20-16.5,30-24.7c11.9-9.8,23.9-19.6,35.8-29.4
	c1.4-1.2,2.7-2.5,3.9-3.8c3.7-4.2,3.8-9.6,0.3-14.1c-3.5-4.5-8.7-5.6-13.8-2.7c-3.6,2-6.6,5.1-9.8,7.7
	c-21.5,17.8-43.1,35.4-64.7,53.1c-6.2,5-12.2,10.2-18.6,15c-2.3,1.2-4.5,2.5-7.2,1.5c-3.1-2.5-1.8-5.4-0.5-8.1
	c6.9-14,14.3-27.7,21.5-41.6c1.1-2.1,2.2-4.1,2.8-6.4c1.8-6.7-0.5-11.8-6.8-14.8c-5.4-2.7-11.8-1.2-15.6,3.9
	c-5.9,8-11.4,16.3-17.1,24.5c-10.8,15.6-22.3,30.5-34.5,45c-18.8,22.2-23.4,48.1-16.3,76.2C263.7,435.2,265,437,263.8,439z"/>
<path class="st1" d="M263.8,439c-9.7-29.4-6.3-57.2,13.5-81c19.1-22.8,35.8-47.2,52.9-71.4c4.1-5.9,11.8-7.3,18.2-3.7
	c7.2,4.1,9.4,10.6,5.5,18.7c-4.7,9.7-9.9,19.1-14.9,28.7c-3.1,5.9-6.1,11.8-9.2,17.7c-1.1,2.1-1.2,4.1,0.1,6.1
	c5.6,4,7.8,10.2,10.2,16.2c6.4,16.2,6,32.8,1,49.3c-3,9.9-7.2,19.3-12.9,28c-0.7,1.1-1.5,2.2-2,3.5c-0.3,0.8-0.5,1.7,0.2,2.3
	c0.9,0.8,1.8,0.6,2.7,0.1c1.5-0.8,2.4-2.3,3.3-3.6c12.1-17.6,19.3-36.6,17.9-58.4c-1-14.4-5.6-27.5-13.7-39.5
	c22-18.1,44-36.2,65.9-54.3c8.1-6.6,16-13.4,24.1-19.9c4.1-3.2,8.6-5.1,13.8-2.1c4.9,2.8,7.3,7,7,12.7c-0.1,3.3-2,5.6-4.3,7.5
	c-10.8,9-21.6,18-32.4,27c-12.5,10.3-25,20.7-37.6,30.9c-2.1,1.7-2.6,2.6-0.5,4.9c6.2,6.9,5.9,6.8,13,0.8
	c15.5-13,31.2-25.6,46.8-38.5c4.7-3.9,9.4-7.9,14-11.8c3.1-2.5,6.2-5,9.3-7.4c6.7-5.2,12.5-4.8,17.5,1.2c5.1,6.1,4.6,12.4-1.9,17.8
	C449.5,339,427.5,357,405.6,375c-2.7,2.2-5.3,4.6-8.1,6.6c-2.8,1.9-3.1,3.5-0.9,6.2c4,4.9,3.8,5,8.8,0.9
	c20.4-16.8,40.8-33.5,61.2-50.3c6.9-5.7,13.1-5.4,18.2,0.9c5.2,6.4,4.5,12.4-2.5,18.1c-22.2,18.3-44.3,36.6-66.7,54.7
	c-3.4,2.7-3.5,4.6-1.5,8.1c3.7,6.2,3.5,6.3,8.8,1.9c15.2-12.4,30.3-24.9,45.5-37.3c7.1-5.8,13.8-5,18.8,2.1
	c4.1,5.8,3.3,11.5-2.8,16.6c-11.2,9.4-22.6,18.6-33.9,27.9c-17.9,14.7-35.5,29.5-53.6,43.9C350.4,512.4,285.4,494.7,263.8,439z"/>
<path class="st1" d="M159.1,353.1c2.7-1.4,2-3.4,0.9-5.5c-7.5-14.6-15.1-29.2-22.6-43.8c-2.6-5-4.9-10.2-1.5-15.5
	c3.2-5,8-7.9,14.3-7.3c4.4,0.5,7.6,2.7,10.1,6.3c10.8,15.5,21.5,31,32.7,46.2c6.3,8.5,13.7,16.2,20.1,24.6
	c18.7,24.5,22.6,51.6,13,80.7c-13.7,35.3-45,56.6-82.2,55.6c-18.3-0.5-34.9-6.4-49.2-18c-29.8-24.2-59.4-48.6-89-73
	c-6.9-5.6-7.6-11.9-2.3-18.1c5.2-6.2,11.2-6.4,18.3-0.7c15.7,12.9,31.4,25.7,46.9,38.7c3,2.5,4.5,2.5,5.8-1.3
	c0.4-1.2,1.1-2.4,1.9-3.5c1.8-2.6,1.1-4.1-1.3-6.1c-22.4-18.2-44.7-36.6-67.1-55c-6.6-5.4-8-10.4-4.4-16.4c4.7-7.9,12-9.3,19.2-3.4
	c20.8,17,41.6,34.2,62.4,51.2c1.4,1.1,2.8,3.9,4.8,2.4c2.2-1.6,3.9-4.2,5-6.7c0.8-1.7-1.7-2.6-2.9-3.5
	c-23.2-19.1-46.4-38.2-69.7-57.3c-1.4-1.2-2.9-2.3-4.2-3.5c-6.1-5.4-6.7-11.4-1.7-17.5c5-6,10.8-6.5,17.4-1.4
	c3.1,2.4,6.3,4.9,9.4,7.3c11.3,9.4,22.6,18.9,33.9,28.3c10.3,8.5,20.9,16.8,31.1,25.5c2.6,2.2,3.9,1.9,6-0.4
	c5.4-5.9,5.5-6.4-0.8-11.5c-21.2-17.3-42.3-34.5-63.5-51.8c-7.3-5.9-9.3-10.7-6.9-16.4c3.8-9.2,12.6-11.1,20.7-4.5
	c7.8,6.4,15.6,12.9,23.4,19.3c21.4,17.6,42.7,35.1,64.1,52.6c0.4,2-0.9,3.5-1.7,5c-18.5,32.1-12,66.7,8.1,94.6
	c0.4,0.5-0.1-0.1,0.3,0.4c1.3,1.4,2.7,3.8,4.8,2.3c2-1.5,0-3.3-0.9-4.7c-7.9-12.7-14.1-26.1-16.2-41c-2.4-17.2-0.5-33.8,9.2-48.9
	C155.9,356,157,354.1,159.1,353.1z"/>
<path class="st2" d="M244.7,302.3c-35.7-0.5-64.1-16.2-87.6-42.1c-7.6-8.4-14.3-17.5-19.9-27.4c-0.6-1-1.3-2-1.6-3.1
	c-1-3.2-1-6.3,1.9-8.6c3-2.3,5.5-0.9,8,1.1c13.2,10.8,27.8,19.3,43.4,26.2c40.5,18.1,80.3,16.1,119.6-3.5
	c12.5-6.2,24.4-13.5,35.3-22.4c2.6-2.1,5.2-4.1,8.4-1.5c3.4,2.7,3.2,6.3,1.3,9.9c-4.2,8-9.3,15.3-15,22.3
	c-17.4,21.4-38.3,37.7-65.3,45.1C263.9,301,254.4,302.4,244.7,302.3z"/>
<path class="st2" d="M174.2,109.8c15.7,0.3,27.9,7.5,38.1,18.8c5.5,6.1,9.9,12.9,13.5,20.2c1.5,3.2,2.3,6.4-0.7,9.1
	c-2.9,2.7-5.7,1.3-8.6-0.4c-17.1-10.1-35.8-11.5-54.9-9.6c-11,1.1-21.5,4.3-30.9,10.3c-2.5,1.6-5,1.9-7.3-0.2
	c-2.1-2-2.9-4.6-1.6-7.3c10-20.3,23.3-36.8,47.4-40.7c0.8-0.1,1.6-0.3,2.5-0.3C172.5,109.8,173.4,109.8,174.2,109.8z"/>
<path class="st2" d="M324.5,109.8c12.2,0.2,22.4,4.1,31.3,11.5c9.4,7.8,16.3,17.4,21.6,28.3c1.5,3.2,1.7,6.2-1.1,8.6
	c-2.7,2.3-5.3,1.2-8.2-0.3c-28.1-14.4-56.3-14.4-84.5-0.4c-3.1,1.5-5.9,3.6-9,0.6c-2.9-2.8-2.2-6.1-0.6-9.2
	c8.9-17.1,20.4-31.5,39.9-37.3C317.5,110.3,321.3,110,324.5,109.8z"/>
<path class="st3" d="M159.1,353.1c-5.4,8.6-10.2,17.4-12,27.6c-3,17.8,0,34.6,7.4,50.8c2.7,5.9,5.8,11.6,9.4,17
	c1.1,1.6,3.3,3.5,0.4,5.4c-2.4,1.6-4.5,0.7-6.2-1.2c-4.3-4.9-7.6-10.5-10.5-16.3c-7-14-11.4-28.7-10.4-44.5c0.9-15.2,5-29.3,14-41.8
	C153.9,351.2,156.5,352.2,159.1,353.1z"/>
<path class="st3" d="M336.7,352c4.3,1.1,5,5.2,6.5,8.2c11.5,23.6,11.7,47.6,1.1,71.6c-3.1,7-6.8,13.7-11.4,19.8
	c-0.7,0.9-1.3,1.9-2.2,2.7c-1.7,1.8-3.9,2.2-5.9,0.8c-2.1-1.6-0.9-3.5,0.3-5.2c7-10.2,12.3-21.3,15.4-33.3
	c5.6-21.4,3.5-41.7-9.6-60.2c-0.5-0.7-0.8-1.5-1.2-2.2C332.3,354,334.5,353.1,336.7,352z"/>
</svg>
