<svg width="130" height="72" viewBox="0 0 130 72" fill="none" xmlns="http://www.w3.org/2000/svg">
<path d="M82.7631 19.8561C82.7901 19.784 83.4033 18.7309 84.2058 17.5787C87.9208 12.2319 93.4302 7.08304 99.8864 7.28108L99.8954 7.24507C96.9739 6.92102 94.1155 7.70414 91.5998 9.08136C87.4519 11.3137 83.4213 15.5624 81.2122 18.8299L82.7631 19.8561Z" fill="#FCC13F"/>
<path d="M48.8238 7.36488L48.427 8.83211L49.6173 9.83127L49.0492 11.4515L50.6542 12.1266L50.0952 13.9899L51.4928 14.791L51.2494 16.6633L50.537 16.5733L50.7173 15.1691L49.2476 14.323L49.7796 12.5407L48.1565 11.8566L48.7787 10.0653L47.6155 9.09316L47.9852 7.72494L47.0835 7.23886L47.4261 6.60876L48.8238 7.36488Z" fill="#083EDA"/>
<path d="M63.8751 60.0856C65.5973 62.0029 65.435 64.9553 63.5144 66.6746C61.5938 68.3939 58.6362 68.2318 56.914 66.3145C55.1917 64.3972 55.354 61.4448 57.2746 59.7255C59.2043 58.0062 62.1528 58.1683 63.8751 60.0856Z" fill="#FCC13F"/>
<path d="M59.0327 65.4144C59.9524 66.4405 61.5304 66.5306 62.5584 65.6034C63.5863 64.6853 63.6765 63.11 62.7477 62.0839L59.0327 65.4144Z" fill="#EFEFEF"/>
<path d="M110.513 16.994L109.71 19.0013L106.32 18.0652L104.778 20.8556L102.127 20.5676L101.982 21.9088L105.526 22.2959L106.987 19.6494L110.513 20.6216L111.73 17.5971L110.513 16.994Z" fill="#7271B3"/>
<path d="M78.7732 70.9452L79.3153 69.6095C78.7183 69.3424 78.1762 68.9862 77.7508 68.63C77.394 68.3355 77.3323 67.808 77.6067 67.4382L77.641 67.3902C77.943 66.9792 78.533 66.9107 78.9173 67.2395C79.3084 67.582 79.7887 67.8971 80.3376 68.1163C81.1404 68.4382 81.8128 68.3492 82.0461 67.7875C82.2588 67.2532 81.9501 66.7326 81.0443 65.9586C79.7407 64.8421 78.9928 63.7257 79.5485 62.3626C80.0494 61.1228 81.312 60.5063 82.945 60.8146L83.487 59.4789L84.8662 60.0337L84.3653 61.2735C84.8662 61.4995 85.2642 61.7393 85.5798 61.979C85.964 62.2667 86.0395 62.8147 85.7582 63.1982C85.4632 63.5955 84.8937 63.6777 84.5094 63.3695C84.2144 63.1366 83.837 62.8968 83.343 62.6982C82.4235 62.3283 81.9707 62.6023 81.8128 62.9996C81.6276 63.4654 81.9981 63.9585 83.0136 64.8901C84.4545 66.1573 84.8182 67.2053 84.3036 68.4724C83.7958 69.7259 82.4784 70.4383 80.7424 70.0684L80.1661 71.5068L78.7732 70.9452Z" fill="#083EDA"/>
<path d="M25.1737 40.0965C25.3541 40.3306 25.336 40.6636 25.1377 40.8886C24.7499 41.3207 24.1097 41.8518 23.3162 42.2389C22.144 42.8059 20.8095 42.977 19.5471 42.5449C18.7536 42.2749 18.0052 41.7168 17.4372 40.9697L16.7428 41.3027C16.5084 41.4197 16.2289 41.3207 16.1117 41.0867L16.1026 41.0687C15.9854 40.8346 16.0846 40.5556 16.319 40.4386L16.8871 40.1595C16.7789 39.9705 16.6978 39.8625 16.6437 39.7545C16.5535 39.5744 16.4723 39.3584 16.3912 39.1064L15.8051 39.3944C15.5706 39.5114 15.2911 39.4124 15.1739 39.1784C15.0567 38.9443 15.1558 38.6653 15.3903 38.5483L16.1026 38.2062C15.9043 37.2971 15.9403 36.3879 16.2108 35.5958C16.6707 34.2546 17.6896 33.2374 18.9069 32.6434C19.6193 32.3013 20.2144 32.1573 20.7103 32.1033C21.053 32.0673 21.3595 32.3103 21.4046 32.6434V32.6524C21.4587 33.0034 21.2063 33.3275 20.8546 33.3725C20.4578 33.4265 19.989 33.5525 19.457 33.8135C18.6815 34.1916 18.0233 34.8217 17.6896 35.7218C17.5093 36.2439 17.4552 36.865 17.6355 37.4501L21.621 35.5148C21.8555 35.3978 22.135 35.4968 22.2522 35.7308C22.3695 35.9649 22.2703 36.2439 22.0358 36.3609L17.879 38.3863C17.9601 38.5933 18.0323 38.7913 18.0954 38.9173C18.1765 39.0794 18.2487 39.2324 18.3749 39.4394L22.5408 37.4141C22.7842 37.2971 23.0728 37.3961 23.19 37.6391C23.3072 37.8822 23.208 38.1702 22.9646 38.2872L18.97 40.2315C19.3397 40.6816 19.8086 41.0057 20.2775 41.1677C21.2153 41.4737 22.0448 41.3837 22.9285 40.9517C23.4695 40.6906 23.9023 40.3576 24.236 40.0425C24.5155 39.7725 24.9483 39.7995 25.1737 40.0965Z" fill="#7271B3"/>
<path d="M20.9563 52.3479L19.5183 53.8442L16.8645 51.8123L14.4973 53.7332L12.2613 52.5397L11.6516 53.6735L14.6473 55.2725L16.8851 53.4499L19.6539 55.5612L21.8114 53.3104L20.9563 52.3479Z" fill="#083EDA"/>
<path d="M26.7252 23.0212C26.6981 22.9402 26.0038 21.761 25.1111 20.4828C20.9723 14.5149 14.8227 8.76295 7.60912 8.97898L7.6001 8.93398C10.8643 8.57392 14.0563 9.44706 16.8606 10.9863C21.4953 13.4797 26.0038 18.2234 28.4655 21.878L26.7252 23.0212Z" fill="#FCC13F"/>
<path d="M9.2141 12.2825L8.72718 8.92495L11.2159 6.62059C11.4954 6.35955 11.3601 5.88247 10.9814 5.81946L7.63612 5.24337L6.21143 2.16489C6.04913 1.81383 5.55319 1.80483 5.37285 2.14689L3.79488 5.14436L0.413498 5.54942C0.0257669 5.59443 -0.136539 6.0625 0.133971 6.34155L2.50544 8.77193L1.8472 12.0935C1.77507 12.4715 2.1628 12.7686 2.51446 12.5975L5.56221 11.0943L8.52881 12.7506C8.86243 12.9396 9.2682 12.6605 9.2141 12.2825Z" fill="#FCC13F"/>
<path d="M98.2061 63.1694L98.4405 62.3772C99.6758 62.1432 100.74 61.3151 101.091 60.1179C101.2 59.7398 101.281 59.4158 101.335 58.9837L99.6758 58.5066L99.9734 57.5075L101.47 57.9395C101.533 57.4355 101.614 56.7874 101.795 56.1753C102.345 54.303 104.013 53.4478 105.798 53.9609C106.303 54.1049 106.7 54.294 106.989 54.492C107.25 54.672 107.322 55.0231 107.151 55.2931C106.98 55.5632 106.619 55.6352 106.348 55.4732C106.123 55.3381 105.834 55.2031 105.465 55.0951C104.211 54.735 103.445 55.4461 103.111 56.5713C102.913 57.2554 102.859 57.7955 102.805 58.3266L105.122 58.9927L104.825 59.9919L102.633 59.3618C102.507 59.9829 102.363 60.595 102.047 61.126C101.669 61.7561 101.119 62.2242 100.433 62.5213L100.424 62.5573L104.653 63.7725C104.969 63.8625 105.149 64.1865 105.059 64.4926L105.05 64.5376C104.96 64.8436 104.635 65.0237 104.32 64.9336L98.2061 63.1694Z" fill="#FCC13F"/>
<path d="M3.82601 30.2167L4.61049 28.8935L3.96126 27.4983C3.88913 27.3362 4.02438 27.1652 4.20472 27.2012L5.71056 27.5343L6.8467 26.4901C6.97294 26.3731 7.18935 26.4541 7.19837 26.6251L7.34264 28.1644L8.69519 28.9115C8.84848 29.0015 8.83946 29.2175 8.67716 29.2895L7.25247 29.9016L6.95491 31.4139C6.91884 31.5849 6.70243 31.6479 6.58521 31.5129L5.56629 30.3517L4.0334 30.5317C3.85306 30.5587 3.73584 30.3697 3.82601 30.2167Z" fill="#FC008B"/>
<path d="M129.567 39.8056L127.674 39.6526L127.421 41.3989L125.555 41.3269L125.104 42.9651L123.697 43.1361L123.787 43.8472L125.663 43.6132L126.096 42.065L128.034 42.137L128.287 40.4177L130 40.5527L129.567 39.8056Z" fill="#FC008B"/>
<path d="M44.4955 18.5356L44.3873 16.6453L42.6199 16.6363L42.4216 14.782L40.7354 14.566L40.3657 13.2068L39.6714 13.3958L40.1763 15.2141L41.7723 15.4211L41.9707 17.3474L43.711 17.3564L43.8102 19.0667L44.4955 18.5356Z" fill="#FC008B"/>
<path d="M19.8054 67.6713L21.2754 67.2396L21.5181 65.704L23.19 65.3454L22.944 63.6259L24.8266 63.1424L24.7898 61.5356L26.5205 60.7608L26.8135 61.4192L25.5168 61.9908L25.5538 63.6876L23.7432 64.1619L23.9983 65.9084L22.148 66.3L21.9161 67.8049L20.5542 68.2003L20.6045 69.2107L19.8909 69.2526L19.8054 67.6713Z" fill="#7271B3"/>
<path d="M74.5149 8.49695L74.4247 9.64013L72.5582 9.69414L72.2155 11.3594L70.8269 11.6294L70.9622 12.3316L72.8197 11.9715L73.1443 10.3962L75.0829 10.3332L75.2272 8.60496L74.5149 8.49695Z" fill="#083EDA"/>
<path d="M124.34 1.49995C126.495 3.56128 126.567 6.97281 124.502 9.12415C122.437 11.2755 119.02 11.3475 116.865 9.28618C114.71 7.22485 114.638 3.81332 116.703 1.66198C118.767 -0.489358 122.194 -0.561369 124.34 1.49995Z" fill="#FFF3D9"/>
<path d="M124.25 6.00963L121.95 6.71174L121.229 8.9981C121.175 9.18713 120.922 9.22314 120.814 9.06111L119.435 7.0988L117.027 7.12581C116.829 7.12581 116.721 6.90977 116.838 6.74775L118.28 4.83045L117.514 2.55309C117.451 2.37306 117.631 2.19303 117.812 2.25604L120.084 3.03016L122.013 1.59894C122.167 1.48192 122.392 1.59894 122.383 1.78797L122.347 4.19135L124.304 5.58657C124.475 5.71258 124.439 5.95562 124.25 6.00963Z" fill="#FCC13F"/>
<path d="M126.457 24.0039L127.728 23.9319C127.863 23.9229 127.935 23.7428 127.854 23.6348L127.043 22.5816L127.394 21.2404C127.43 21.0964 127.304 20.9704 127.178 21.0244L125.997 21.5555L124.942 20.7994C124.825 20.7184 124.671 20.8174 124.68 20.9704L124.761 22.3566L123.76 23.2297C123.652 23.3288 123.688 23.5088 123.824 23.5448L125.05 23.8688L125.483 25.1651C125.528 25.3091 125.708 25.3181 125.78 25.1921L126.457 24.0039Z" fill="#FC008B"/>
<path d="M99.9973 25.173H31.7476V52.5913H99.9973V25.173Z" fill="#1765FC"/>
<path d="M98.9856 51.5708V26.1868L32.7647 26.1868V51.5708L98.9856 51.5708Z" fill="#F3FFFF"/>
<path d="M99.9973 25.173H31.7476V32.6261H99.9973V25.173Z" fill="#1765FC"/>
<path d="M88.2031 39.1071L89.4114 38.162L90.0877 39.5392L91.5935 39.2062L91.6025 40.7454L93.0994 41.0964L92.4411 42.4827L93.6404 43.4548L92.4411 44.418L93.0994 45.8042L91.6025 46.1552L91.5935 47.6945L90.0877 47.3614L89.4114 48.7386L88.2031 47.7935L86.9948 48.7386L86.3186 47.3614L84.8127 47.6945L84.8037 46.1552L83.3069 45.8042L83.9651 44.418L82.7659 43.4548L83.9651 42.4827L83.3069 41.0964L84.8037 40.7454L84.8127 39.2062L86.3186 39.5392L86.9948 38.162L88.2031 39.1071Z" fill="#FC008B"/>
<path d="M88.203 40.4484L89.0415 39.7913L89.5104 40.7454L90.5474 40.5114L90.5564 41.5735L91.5934 41.8166L91.1425 42.7797L91.9631 43.4548L91.1425 44.1209L91.5934 45.0841L90.5564 45.3271L90.5474 46.3893L89.5104 46.1553L89.0415 47.1094L88.203 46.4523L87.3644 47.1094L86.8955 46.1553L85.8585 46.3893L85.8495 45.3271L84.8126 45.0841L85.2724 44.1209L84.4429 43.4548L85.2724 42.7797L84.8126 41.8166L85.8495 41.5735L85.8585 40.5114L86.8955 40.7454L87.3644 39.7913L88.203 40.4484Z" fill="#FCC13F"/>
<path d="M90.8721 27.2073H39.2227V30.9429H90.8721V27.2073Z" fill="#083EDA"/>
<path d="M63.385 47.6833V38.1326L61.4785 39.1453L61.0938 37.6088L63.6998 36.2295H65.2214V47.6833H63.385Z" fill="#1D1D1D" stroke="#1D1D1D"/>
<path d="M72.5848 48.0674C70.2411 48.0674 68.7545 45.815 68.7195 42.1834C68.7195 40.3675 69.1043 38.8485 69.8389 37.8009C70.556 36.7708 71.5704 36.2295 72.7772 36.2295C73.9841 36.2295 74.981 36.7708 75.6456 37.8009C76.3103 38.8136 76.6426 40.2278 76.6426 42.0262C76.6426 45.8674 75.1559 48.0674 72.5848 48.0674ZM72.6898 37.7834C71.413 37.7834 70.6259 39.4771 70.6259 42.2008C70.6259 44.8722 71.413 46.5134 72.6898 46.5134C74.4913 46.5134 74.7536 43.7373 74.7536 42.0961C74.7361 40.4897 74.4738 37.7834 72.6898 37.7834Z" fill="#1D1D1D" stroke="#1D1D1D"/>
<path d="M53.9108 49.916V48.014C52.8607 47.9691 51.7656 47.6396 51.1055 47.1604L51.0005 47.0855L51.5556 45.5131L51.7356 45.6329C52.4707 46.1271 53.4008 46.4116 54.2709 46.4116C55.306 46.4116 56.4161 45.9773 56.4161 44.7493C56.4161 43.5662 55.366 43.087 54.1358 42.5479C52.7557 41.9339 51.1805 41.245 51.1805 39.2682C51.1805 37.6658 52.2906 36.4378 54.0158 36.1083V34.1914H55.516V36.0185C56.4161 36.0634 57.1962 36.288 57.8713 36.6924L57.9913 36.7672L57.4062 38.3247L57.2412 38.2199C56.9112 38.0402 56.1611 37.6059 54.9609 37.6059C53.6108 37.6059 53.1307 38.3846 53.1307 39.0585C53.1307 40.0769 54.1058 40.4962 55.231 40.9904C56.7011 41.6344 58.3813 42.3682 58.3813 44.6295C58.3813 46.0073 57.4662 47.5648 55.411 47.9691V49.9459H53.9108V49.916Z" fill="#1D1D1D" stroke="#1D1D1D"/>
<path d="M105.02 6.1229C104.963 8.92465 102.652 11.149 99.8568 11.0922C97.066 11.0354 94.8446 8.71641 94.9058 5.91466C94.9623 3.10818 97.2731 0.883813 100.069 0.945338C102.859 1.00213 105.076 3.32115 105.02 6.1229Z" fill="#FFFEEE"/>
<path d="M105.198 6.39746C105.142 9.18501 102.859 11.4046 100.106 11.3431C97.3483 11.2863 95.1646 8.97677 95.221 6.18922C95.2775 3.40166 97.5601 1.18203 100.313 1.24356C103.067 1.30035 105.255 3.60517 105.198 6.39746Z" fill="#E58824"/>
<path d="M105.043 6.20331C104.987 8.9388 102.709 11.1064 99.9508 11.0496C97.1929 10.9928 95.0092 8.73057 95.061 5.99507C95.1174 3.25958 97.3953 1.092 100.153 1.1488C102.911 1.21032 105.1 3.47255 105.043 6.20331Z" fill="#FEDD1A"/>
<path d="M95.061 6.02355C95.2069 3.165 97.5036 1.09682 100.163 1.15361C102.864 1.21513 105.09 3.45843 105.057 6.23178L95.061 6.02355Z" fill="#F9CB0E"/>
<path d="M103.975 6.17017C103.932 8.31408 102.144 10.0131 99.9838 9.97052C97.8236 9.92793 96.1105 8.15317 96.1529 6.00926C96.1952 3.86536 97.9836 2.16632 100.144 2.20891C102.304 2.25151 104.017 4.02627 103.975 6.17017Z" fill="#D87E27"/>
<path d="M104.022 6.37849C103.979 8.47034 102.219 10.1315 100.087 10.0889C97.9554 10.0463 96.2658 8.30943 96.3082 6.21758C96.3505 4.12573 98.1107 2.46455 100.243 2.50715C102.37 2.55448 104.064 4.28664 104.022 6.37849Z" fill="#FBF3CD"/>
<path d="M103.9 6.19868C103.857 8.23847 102.125 9.85705 100.026 9.81445C97.9272 9.77186 96.2612 8.08229 96.3035 6.0425C96.3459 4.00271 98.0778 2.38413 100.177 2.42673C102.271 2.47405 103.942 4.15889 103.9 6.19868Z" fill="#FCB426"/>
<path opacity="0.2" d="M96.3223 6.09448C96.3223 6.09448 96.3223 6.09922 96.3223 6.09448C96.28 8.11534 97.9413 9.78125 100.026 9.82384C102.116 9.86644 103.838 8.26679 103.881 6.25539V6.25066L96.3223 6.09448Z" fill="#F6942C"/>
<path d="M100.229 3.25488L99.5179 3.29748L99.5508 3.80387C98.6707 3.99792 98.2566 4.50905 98.3084 5.23788C98.3272 5.53604 98.4401 5.78214 98.6378 5.98565C98.8214 6.17022 99.1884 6.31693 99.7344 6.42105L99.8285 7.78407C99.4332 7.73201 99.0143 7.43385 98.859 7.00791L98.2566 7.65628C98.586 8.20054 99.052 8.43245 99.8379 8.48924L99.8662 9.09975L100.652 9.06663L100.6 8.45611C101.038 8.37565 101.382 8.17688 101.608 7.93078C101.852 7.66575 101.96 7.325 101.937 6.94638C101.918 6.68135 101.815 6.42578 101.673 6.23174C101.532 6.04244 101.382 5.91465 101.222 5.85786C101.076 5.8058 100.798 5.73008 100.398 5.64016L100.313 4.43332C100.577 4.47592 100.774 4.65103 100.902 4.95392L101.598 4.68416C101.377 4.11623 100.949 3.82754 100.285 3.75182L100.229 3.25488ZM99.0661 5.07224C99.052 4.88293 99.1131 4.73621 99.2402 4.6321C99.339 4.55164 99.4567 4.49958 99.5979 4.47118L99.6732 5.5881C99.2873 5.53131 99.0849 5.36093 99.0661 5.07224ZM101.151 7.05523C101.165 7.25401 101.104 7.41965 100.963 7.55216C100.85 7.66102 100.709 7.73201 100.539 7.7604L100.45 6.48258C100.897 6.55357 101.132 6.74761 101.151 7.05523Z" fill="#DB7F27"/>
<path d="M99.9744 3.2644L99.259 3.307L99.292 3.8134C98.4119 4.00744 97.9977 4.51857 98.0495 5.2474C98.0683 5.54556 98.1813 5.79166 98.3789 5.99517C98.5625 6.17974 98.9296 6.32645 99.4755 6.43057L99.5696 7.79359C99.1743 7.74626 98.9013 7.50963 98.7507 7.08368L98.1907 7.71313C98.5201 8.25739 98.7931 8.4467 99.5837 8.49876L99.6167 9.10928L100.403 9.07615L100.351 8.46563C100.789 8.38517 101.132 8.1864 101.358 7.9403C101.603 7.67527 101.711 7.33452 101.687 6.9559C101.669 6.69087 101.565 6.43531 101.424 6.24127C101.283 6.05196 101.132 5.92418 100.972 5.86738C100.826 5.81532 100.549 5.7396 100.149 5.64968L100.064 4.44284C100.327 4.48544 100.525 4.66055 100.652 4.96344L101.349 4.69368C101.127 4.12575 100.699 3.83706 100.036 3.76134L99.9744 3.2644ZM98.8072 5.08176C98.7931 4.89245 98.8543 4.74574 98.9813 4.64162C99.0802 4.56116 99.1978 4.5091 99.339 4.48071L99.4143 5.59762C99.0331 5.54083 98.826 5.37045 98.8072 5.08176ZM100.897 7.06475C100.911 7.26353 100.85 7.42917 100.709 7.56169C100.596 7.67054 100.454 7.74153 100.285 7.76992L100.196 6.4921C100.643 6.56309 100.873 6.75713 100.897 7.06475Z" fill="#FFE93C"/>
<path d="M70.0669 23.6245C69.2032 26.8197 65.9227 28.6993 62.7388 27.8308C59.5549 26.9623 57.6729 23.6634 58.543 20.4681C59.4066 17.2729 62.6872 15.3933 65.8711 16.2618C69.055 17.1368 70.9305 20.4292 70.0669 23.6245Z" fill="#FFFEEE"/>
<path d="M70.1956 23.9874C69.332 27.1696 66.0901 29.0492 62.9513 28.1872C59.8125 27.3252 57.9627 24.0522 58.8199 20.8699C59.6836 17.6876 62.9255 15.8081 66.0643 16.6701C69.2095 17.5321 71.0528 20.8116 70.1956 23.9874Z" fill="#E58824"/>
<path d="M70.0735 23.7281C69.2292 26.8455 66.0002 28.6732 62.8614 27.8112C59.7226 26.9492 57.86 23.7281 58.7043 20.6106C59.5486 17.4931 62.7776 15.6654 65.9164 16.5274C69.0552 17.3894 70.9178 20.6106 70.0735 23.7281Z" fill="#FEDD1A"/>
<path d="M58.6846 20.6366C59.6642 17.4025 62.8868 15.6914 65.916 16.5275C68.9903 17.3765 70.9045 20.5847 70.0796 23.754L58.6846 20.6366Z" fill="#F9CB0E"/>
<path d="M68.8551 23.3781C68.1912 25.8215 65.6647 27.2539 63.2027 26.5798C60.7407 25.9058 59.2841 23.3781 59.9415 20.9347C60.6053 18.4913 63.1318 17.0589 65.5938 17.733C68.0559 18.407 69.5189 20.9347 68.8551 23.3781Z" fill="#D87E27"/>
<path d="M68.8486 23.6309C68.2041 26.016 65.7098 27.4159 63.28 26.7484C60.8502 26.0808 59.4065 23.6115 60.051 21.2264C60.6955 18.8413 63.1898 17.4413 65.6196 18.1089C68.0494 18.77 69.4995 21.2458 68.8486 23.6309Z" fill="#FBF3CD"/>
<path d="M68.7583 23.3911C68.1267 25.7179 65.6776 27.0724 63.2864 26.4178C60.8953 25.7632 59.4645 23.3457 60.0961 21.0255C60.7277 18.6987 63.1768 17.3441 65.568 17.9987C67.9591 18.6469 69.39 21.0643 68.7583 23.3911Z" fill="#FCB426"/>
<path opacity="0.2" d="M60.1154 21.0902C60.109 21.0902 60.109 21.0902 60.1154 21.0902C59.4902 23.391 60.9146 25.7826 63.2993 26.4307C65.6776 27.0853 68.1138 25.7502 68.7325 23.4494C68.7325 23.4494 68.7325 23.4494 68.7325 23.4429L60.1154 21.0902Z" fill="#F6942C"/>
<path d="M65.4005 18.958L64.5691 18.8025L64.4659 19.3923C63.4025 19.3599 62.7838 19.8265 62.6291 20.682C62.5711 21.0255 62.6226 21.3431 62.7967 21.6348C62.9578 21.9005 63.3316 22.1727 63.9246 22.4449L63.641 24.0328C63.2027 23.8643 62.8031 23.3977 62.7515 22.8662L61.875 23.4366C62.1006 24.156 62.5646 24.5513 63.4541 24.843L63.3123 25.5559L64.221 25.7439L64.337 25.0309C64.8655 25.0633 65.3103 24.9337 65.639 24.7198C65.9934 24.4865 66.219 24.1301 66.2964 23.6893C66.3544 23.3782 66.3028 23.0542 66.1997 22.7949C66.0966 22.5357 65.9548 22.3477 65.7872 22.2375C65.6325 22.1338 65.336 21.9718 64.9042 21.7514L65.1556 20.345C65.4456 20.4682 65.6196 20.7274 65.6776 21.1098L66.5542 21.0061C66.4639 20.2932 66.0579 19.8395 65.3167 19.5608L65.4005 18.958ZM63.5443 20.708C63.583 20.4876 63.6925 20.3385 63.8665 20.2543C64.0019 20.1895 64.1566 20.1635 64.3241 20.1765L64.0921 21.4792C63.6732 21.2978 63.4863 21.0385 63.5443 20.708ZM65.3683 23.5791C65.3296 23.8125 65.2071 23.981 65.0138 24.0912C64.8527 24.1819 64.6722 24.2208 64.4724 24.2078L64.7366 22.7171C65.22 22.931 65.4327 23.2227 65.3683 23.5791Z" fill="#DB7F27"/>
<path d="M65.1039 18.8931L64.2725 18.7375L64.1694 19.3273C63.1059 19.2949 62.4872 19.7616 62.3325 20.6171C62.2681 20.9606 62.3261 21.2782 62.5001 21.5698C62.6612 21.8356 63.035 22.1078 63.628 22.38L63.3444 23.9679C62.9061 23.7994 62.6548 23.4429 62.6032 22.9115L61.7847 23.4688C62.0102 24.1883 62.2681 24.4799 63.1575 24.7716L63.0157 25.4845L63.9245 25.6725L64.0405 24.9595C64.569 24.9919 65.0137 24.8623 65.3424 24.6484C65.6969 24.4151 65.9224 24.0586 65.9998 23.6179C66.0578 23.3068 66.0062 22.9827 65.9031 22.7235C65.8 22.4642 65.6582 22.2763 65.4906 22.1661C65.3359 22.0624 65.0395 21.9004 64.6076 21.68L64.859 20.2736C65.149 20.3967 65.323 20.656 65.3811 21.0384L66.2576 20.9347C66.1674 20.2217 65.7613 19.7681 65.0201 19.4894L65.1039 18.8931ZM63.2477 20.643C63.2864 20.4227 63.396 20.2736 63.57 20.1893C63.7053 20.1245 63.86 20.0986 64.0276 20.1116L63.7955 21.4143C63.3702 21.2328 63.1897 20.9736 63.2477 20.643ZM65.0717 23.5142C65.033 23.7475 64.9106 23.916 64.7172 24.0262C64.5561 24.117 64.3756 24.1558 64.1758 24.1429L64.4401 22.6522C64.9234 22.8661 65.1361 23.1577 65.0717 23.5142Z" fill="#FFE93C"/>
<path d="M37.2062 16.0459C39.7294 15.9015 41.6587 13.7304 41.5153 11.1966C41.3719 8.6628 39.2101 6.72583 36.6869 6.87024C34.1637 7.01465 32.2344 9.18575 32.3778 11.7195C32.5212 14.2533 34.683 16.1903 37.2062 16.0459Z" fill="#FFFEEE"/>
<path d="M41.6965 11.4257C41.8383 13.9469 39.937 16.1051 37.4492 16.2542C34.9614 16.3968 32.8216 14.4719 32.6798 11.9507C32.538 9.4295 34.4393 7.27125 36.9271 7.12218C39.415 6.9796 41.5483 8.90452 41.6965 11.4257Z" fill="#E58824"/>
<path d="M41.5417 11.2636C41.6835 13.733 39.7758 15.8523 37.2879 16.0014C34.8001 16.144 32.6668 14.258 32.525 11.7886C32.3832 9.31926 34.291 7.19991 36.7788 7.05084C39.2666 6.90177 41.3999 8.79429 41.5417 11.2636Z" fill="#FEDD1A"/>
<path d="M32.5185 11.808C32.4476 9.21554 34.3811 7.18692 36.7787 7.05082C39.2214 6.91471 41.387 8.7813 41.5546 11.283L32.5185 11.808Z" fill="#F9CB0E"/>
<path d="M40.5749 11.309C40.6845 13.2469 39.1957 14.9061 37.2428 15.0227C35.2899 15.1329 33.6206 13.6552 33.5111 11.7173C33.4015 9.77944 34.8903 8.12025 36.8432 8.00358C38.7896 7.8934 40.4653 9.37112 40.5749 11.309Z" fill="#D87E27"/>
<path d="M40.6332 11.497C40.7427 13.3895 39.2668 15.0163 37.3397 15.1265C35.4126 15.2366 33.7691 13.7913 33.6595 11.8988C33.55 10.0063 35.0259 8.37951 36.953 8.26933C38.8736 8.15915 40.5236 9.60446 40.6332 11.497Z" fill="#FBF3CD"/>
<path d="M40.5108 11.3415C40.614 13.1821 39.1638 14.77 37.2689 14.8802C35.3741 14.9904 33.7499 13.584 33.6468 11.7433C33.5437 9.90262 34.9938 8.31472 36.8887 8.20454C38.7771 8.09436 40.4013 9.50079 40.5108 11.3415Z" fill="#FCB426"/>
<path opacity="0.2" d="M33.666 11.7822C33.666 11.7822 33.666 11.7887 33.666 11.7822C33.7691 13.6099 35.3869 14.9969 37.2688 14.8867C39.1573 14.7765 40.601 13.2145 40.4979 11.3933C40.4979 11.3933 40.4979 11.3933 40.4979 11.3868L33.666 11.7822Z" fill="#F6942C"/>
<path d="M36.9918 8.94336L36.3538 9.0341L36.4182 9.48778C35.6384 9.72759 35.2968 10.2137 35.3934 10.8748C35.4321 11.1405 35.5481 11.3544 35.7415 11.5229C35.9219 11.6784 36.2635 11.7821 36.7598 11.834L36.9403 13.0589C36.5793 13.0395 36.1797 12.7997 36.0122 12.4303L35.5094 13.0589C35.8446 13.5256 36.2829 13.7006 36.9983 13.6941L37.0692 14.245L37.7717 14.1607L37.6815 13.6098C38.0746 13.5061 38.3646 13.2987 38.5515 13.0654C38.7513 12.8062 38.8287 12.4951 38.7771 12.1516C38.7449 11.9118 38.6289 11.6914 38.4871 11.5294C38.3453 11.3673 38.2035 11.2636 38.0553 11.2247C37.9199 11.1859 37.6621 11.1405 37.2947 11.0886L37.1336 10.0063C37.3721 10.0257 37.5654 10.1683 37.7008 10.434L38.3131 10.1424C38.0746 9.64981 37.6686 9.41649 37.0627 9.39705L36.9918 8.94336ZM36.0702 10.6674C36.0444 10.4989 36.0895 10.3627 36.1926 10.259C36.2764 10.1813 36.3795 10.1229 36.5084 10.0905L36.6567 11.0951C36.3022 11.0627 36.1088 10.9266 36.0702 10.6674ZM38.0875 12.3071C38.1133 12.4821 38.0682 12.6377 37.9522 12.7673C37.8555 12.871 37.733 12.9488 37.5848 12.9812L37.4172 11.834C37.8232 11.8729 38.0488 12.0349 38.0875 12.3071Z" fill="#DB7F27"/>
<path d="M36.7599 8.96924L36.1218 9.05998L36.1863 9.51366C35.4064 9.75347 35.0648 10.2396 35.1615 10.9006C35.2002 11.1664 35.3162 11.3803 35.5095 11.5488C35.69 11.7043 36.0316 11.808 36.5279 11.8599L36.7083 13.0848C36.3474 13.0654 36.0832 12.8709 35.9156 12.5015L35.458 13.1107C35.7931 13.5774 36.0509 13.7265 36.7663 13.72L36.8372 14.2709L37.5398 14.1866L37.4495 13.6357C37.8427 13.532 38.1327 13.3246 38.3196 13.0913C38.5194 12.832 38.5968 12.5209 38.5452 12.1774C38.513 11.9376 38.397 11.7173 38.2552 11.5552C38.1134 11.3932 37.9716 11.2895 37.8233 11.2506C37.688 11.2117 37.4302 11.1664 37.0628 11.1145L36.9017 10.0322C37.1402 10.0516 37.3335 10.1942 37.4689 10.4599L38.0811 10.1683C37.8427 9.67569 37.4366 9.44237 36.8308 9.42292L36.7599 8.96924ZM35.8382 10.6932C35.8125 10.5247 35.8576 10.3886 35.9607 10.2849C36.0445 10.2072 36.1476 10.1488 36.2765 10.1164L36.4247 11.121C36.0703 11.0886 35.8769 10.9525 35.8382 10.6932ZM37.862 12.333C37.8878 12.508 37.8427 12.6635 37.7267 12.7932C37.63 12.8969 37.5075 12.9746 37.3593 13.007L37.1917 11.8599C37.5913 11.8987 37.8169 12.0543 37.862 12.333Z" fill="#FFE93C"/>
<path d="M44.7287 61.7624C44.3677 63.6679 42.5373 64.9188 40.636 64.5559C38.7347 64.1929 37.4843 62.3522 37.8453 60.4468C38.2062 58.5413 40.0366 57.2904 41.9379 57.6534C43.8392 58.0163 45.0896 59.857 44.7287 61.7624Z" fill="#FFFEEE"/>
<path d="M44.8189 61.9698C44.458 63.8688 42.6469 65.1197 40.7713 64.7567C38.8958 64.4003 37.6648 62.5661 38.0257 60.6671C38.3866 58.7681 40.1977 57.5172 42.0733 57.8802C43.9488 58.2431 45.1734 60.0708 44.8189 61.9698Z" fill="#E58824"/>
<path d="M44.7351 61.8208C44.3806 63.6809 42.576 64.8993 40.7005 64.5429C38.8249 64.1864 37.5875 62.3846 37.9419 60.5245C38.2964 58.6644 40.1011 57.4459 41.9766 57.8024C43.8521 58.1654 45.0831 59.9607 44.7351 61.8208Z" fill="#FEDD1A"/>
<path d="M37.9355 60.5439C38.3609 58.6061 40.1656 57.4589 41.9766 57.8089C43.8135 58.1653 45.0768 59.9542 44.7416 61.8402L37.9355 60.5439Z" fill="#F9CB0E"/>
<path d="M44.0068 61.6717C43.7297 63.1299 42.3182 64.0827 40.8487 63.804C39.3728 63.5253 38.406 62.1189 38.6831 60.6606C38.9603 59.2023 40.3717 58.2496 41.8412 58.5283C43.3107 58.807 44.2839 60.2134 44.0068 61.6717Z" fill="#D87E27"/>
<path d="M44.0131 61.8208C43.7424 63.2467 42.3502 64.18 40.9001 63.9013C39.4499 63.6226 38.496 62.2421 38.7603 60.8162C39.031 59.3903 40.4231 58.457 41.8733 58.7357C43.3299 59.0209 44.2837 60.4014 44.0131 61.8208Z" fill="#FBF3CD"/>
<path d="M43.9488 61.6847C43.6845 63.0717 42.3182 63.979 40.8874 63.7068C39.4565 63.4346 38.5155 62.0865 38.7798 60.6995C39.044 59.3126 40.4104 58.4052 41.8412 58.6774C43.2721 58.9496 44.213 60.2977 43.9488 61.6847Z" fill="#FCB426"/>
<path opacity="0.2" d="M38.7925 60.7384C38.5347 62.1124 39.4757 63.4476 40.8936 63.7133C42.318 63.9855 43.6779 63.0911 43.9357 61.7235L38.7925 60.7384Z" fill="#F6942C"/>
<path d="M41.7833 59.2542L41.2935 59.2024L41.2613 59.5524C40.6361 59.5848 40.2945 59.8829 40.2494 60.3885C40.2301 60.5959 40.2752 60.7773 40.3912 60.9394C40.4943 61.0884 40.7263 61.231 41.0873 61.3606L40.997 62.3069C40.7328 62.2291 40.4814 61.9764 40.4234 61.6653L39.9336 62.0347C40.0947 62.443 40.3848 62.6569 40.9197 62.7865L40.8681 63.2078L41.4095 63.2726L41.4418 62.8513C41.7511 62.8448 42.0089 62.7476 42.1894 62.605C42.3892 62.4495 42.4988 62.2356 42.5245 61.9699C42.5439 61.7884 42.4988 61.6004 42.4279 61.4514C42.357 61.3023 42.2667 61.2051 42.1636 61.1403C42.0669 61.0884 41.8865 61.0042 41.6287 60.9005L41.7124 60.0644C41.8865 60.1227 42.0025 60.2653 42.054 60.4857L42.5632 60.382C42.4794 59.9672 42.2152 59.7209 41.7769 59.5977L41.7833 59.2542ZM40.7779 60.356C40.7908 60.2264 40.8488 60.1292 40.9455 60.0774C41.0228 60.032 41.1131 60.0125 41.2097 60.0061L41.1324 60.7773C40.881 60.6996 40.7586 60.557 40.7779 60.356ZM41.9767 61.9504C41.9638 62.0865 41.8994 62.1902 41.7898 62.268C41.6996 62.3263 41.5964 62.3587 41.474 62.3587L41.5578 61.4773C41.8607 61.581 41.996 61.743 41.9767 61.9504Z" fill="#DB7F27"/>
<path d="M41.6089 59.2282L41.1191 59.1764L41.0869 59.5264C40.4617 59.5588 40.1201 59.8569 40.075 60.3625C40.0557 60.5699 40.1008 60.7513 40.2168 60.9134C40.3199 61.0624 40.5519 61.205 40.9129 61.3346L40.8226 62.2744C40.5584 62.1966 40.3973 62.0022 40.3457 61.6911L39.8945 62.0541C40.0557 62.4624 40.2232 62.6244 40.7517 62.754L40.7002 63.1753L41.2416 63.2401L41.2738 62.8188C41.5832 62.8124 41.841 62.7151 42.0214 62.5725C42.2212 62.417 42.3308 62.2031 42.3566 61.9374C42.3759 61.7559 42.3308 61.568 42.2599 61.4189C42.189 61.2698 42.0988 61.1726 41.9956 61.1078C41.899 61.0559 41.7185 60.9717 41.4607 60.868L41.5445 60.0319C41.7185 60.0902 41.8345 60.2328 41.8861 60.4532L42.3952 60.3495C42.2921 59.9477 42.0343 59.7014 41.5896 59.5782L41.6089 59.2282ZM40.6035 60.3365C40.6164 60.2069 40.6744 60.1097 40.7711 60.0578C40.8484 60.0125 40.9386 59.993 41.0353 59.9865L40.958 60.7578C40.7002 60.6736 40.5842 60.531 40.6035 60.3365ZM41.8023 61.9309C41.7894 62.067 41.7249 62.1707 41.6154 62.2485C41.5251 62.3068 41.422 62.3392 41.2996 62.3392L41.3834 61.4578C41.6863 61.555 41.8216 61.717 41.8023 61.9309Z" fill="#FFE93C"/>
<path d="M114.183 44.9034C118.023 44.4938 120.807 41.0388 120.4 37.1866C119.994 33.3344 116.552 30.5436 112.712 30.9533C108.872 31.363 106.089 34.8179 106.495 38.6701C106.901 42.5223 110.344 45.3131 114.183 44.9034Z" fill="#FFFEEE"/>
<path d="M120.695 37.5303C121.101 41.3651 118.36 44.804 114.569 45.2098C110.779 45.6122 107.379 42.8318 106.976 38.997C106.569 35.1622 109.311 31.7266 113.098 31.3208C116.888 30.9151 120.288 33.6955 120.695 37.5303Z" fill="#E58824"/>
<path d="M120.45 37.2941C120.847 41.0524 118.098 44.4282 114.311 44.8339C110.521 45.2397 107.128 42.5224 106.731 38.7642C106.334 35.0059 109.082 31.6301 112.869 31.2243C116.66 30.8186 120.053 33.5358 120.45 37.2941Z" fill="#FEDD1A"/>
<path d="M106.728 38.7974C106.43 34.8529 109.221 31.6101 112.873 31.2277C116.587 30.8385 120.03 33.5225 120.466 37.3274L106.728 38.7974Z" fill="#F9CB0E"/>
<path d="M118.975 37.4338C119.286 40.3806 117.133 43.0247 114.163 43.344C111.193 43.6633 108.533 41.5313 108.222 38.5846C107.912 35.6412 110.065 32.9937 113.035 32.6778C116.001 32.3585 118.664 34.4904 118.975 37.4338Z" fill="#D87E27"/>
<path d="M119.077 37.7131C119.382 40.5901 117.255 43.1776 114.328 43.4936C111.401 43.8062 108.778 41.7275 108.474 38.8506C108.166 35.9704 110.293 33.3828 113.223 33.0702C116.15 32.7575 118.773 34.8362 119.077 37.7131Z" fill="#FBF3CD"/>
<path d="M118.876 37.4905C119.173 40.2942 117.076 42.8186 114.192 43.1279C111.308 43.4372 108.732 41.415 108.434 38.6113C108.136 35.8042 110.233 33.2799 113.117 32.9706C116.001 32.6646 118.581 34.6867 118.876 37.4905Z" fill="#FCB426"/>
<path opacity="0.2" d="M108.474 38.6777C108.474 38.6811 108.474 38.6811 108.474 38.6844C108.768 41.4549 111.331 43.4504 114.202 43.1444C117.073 42.8385 119.163 40.344 118.869 37.5735C118.869 37.5702 118.869 37.5702 118.869 37.5669L108.474 38.6777Z" fill="#F6942C"/>
<path d="M113.336 34.0979L112.363 34.2808L112.499 34.9693C111.322 35.3917 110.845 36.1633 111.044 37.1577C111.123 37.5602 111.318 37.8828 111.626 38.1256C111.91 38.3484 112.436 38.4848 113.203 38.528L113.571 40.3839C113.018 40.3839 112.39 40.0479 112.109 39.4925L111.394 40.487C111.943 41.1721 112.618 41.4116 113.709 41.3484L113.858 42.1832L114.927 42.0003L114.748 41.1721C115.337 40.9859 115.77 40.6499 116.035 40.2741C116.322 39.8684 116.415 39.3828 116.312 38.8673C116.243 38.5047 116.054 38.1721 115.829 37.936C115.605 37.6999 115.376 37.5535 115.145 37.5003C114.933 37.4504 114.543 37.4005 113.977 37.3506L113.653 35.711C114.024 35.7243 114.321 35.9271 114.546 36.3196L115.456 35.8274C115.056 35.089 114.417 34.7664 113.498 34.783L113.336 34.0979ZM112.056 36.7952C112.006 36.5391 112.059 36.3263 112.218 36.16C112.34 36.0336 112.496 35.9371 112.681 35.8773L112.982 37.3939C112.443 37.3839 112.132 37.1843 112.056 36.7952ZM115.261 39.1433C115.314 39.4127 115.257 39.6488 115.092 39.855C114.953 40.0247 114.771 40.1444 114.546 40.2142L114.202 38.4748C114.824 38.5047 115.178 38.7276 115.261 39.1433Z" fill="#DB7F27"/>
<path d="M112.985 34.1545L112.013 34.3375L112.148 35.0259C110.971 35.4483 110.495 36.2199 110.693 37.2144C110.772 37.6168 110.968 37.9394 111.275 38.1822C111.56 38.4051 112.086 38.5414 112.853 38.5847L113.22 40.4405C112.668 40.4405 112.251 40.1645 111.97 39.6057L111.315 40.5669C111.864 41.252 112.267 41.4649 113.359 41.4017L113.508 42.2365L114.576 42.0536L114.397 41.2254C114.986 41.0392 115.419 40.7033 115.684 40.3274C115.972 39.9217 116.064 39.4361 115.962 38.9206C115.892 38.558 115.704 38.2255 115.479 37.9893C115.254 37.7532 115.026 37.6068 114.794 37.5536C114.583 37.5037 114.192 37.4538 113.627 37.404L113.303 35.7643C113.673 35.7776 113.971 35.9805 114.196 36.3729L115.105 35.8807C114.705 35.1423 114.067 34.8197 113.147 34.8364L112.985 34.1545ZM111.705 36.8485C111.656 36.5924 111.708 36.3796 111.867 36.2133C111.99 36.0869 112.145 35.9904 112.33 35.9306L112.631 37.4472C112.089 37.4405 111.781 37.241 111.705 36.8485ZM114.91 39.1999C114.963 39.4693 114.907 39.7055 114.741 39.9117C114.602 40.0813 114.421 40.201 114.196 40.2709L113.852 38.5314C114.473 38.558 114.827 38.7809 114.91 39.1999Z" fill="#FFE93C"/>
</svg>
