<svg width="23" height="15" viewBox="0 0 23 15" fill="none" xmlns="http://www.w3.org/2000/svg">
<path d="M22.0418 1.73013C21.4616 1.48988 20.7939 1.62258 20.3498 2.06662L17.3922 5.02451V3.22165C17.3922 1.93777 16.3511 0.896606 15.067 0.896606H2.32516C1.04111 0.896606 0 1.93777 0 3.22165V11.7785C0 13.0623 1.04111 14.1035 2.32516 14.1035H15.067C16.3511 14.1035 17.3922 13.0623 17.3922 11.7785V9.97555L20.3498 12.9334C20.647 13.2305 21.0439 13.3884 21.448 13.3884C21.6479 13.3884 21.8497 13.3495 22.0418 13.27C22.6216 13.0297 23 12.4637 23 11.8357V3.16435C23 2.53639 22.6216 1.97039 22.0418 1.73013ZM10.9278 8.10241L7.75866 10.5372C7.62349 10.6413 7.46006 10.6945 7.29584 10.6945C7.18151 10.6945 7.06673 10.6687 6.96015 10.6162C6.70067 10.4884 6.53639 10.2243 6.53639 9.9349V5.06517C6.53639 4.7757 6.70067 4.51168 6.96015 4.38392C7.21976 4.25598 7.52926 4.28653 7.7586 4.46287L10.9277 6.89765C11.1149 7.04144 11.2246 7.26406 11.2246 7.5C11.2247 7.736 11.115 7.95863 10.9278 8.10241Z" fill="white"/>
</svg>
