<svg width="13" height="11" viewBox="0 0 13 11" fill="none" xmlns="http://www.w3.org/2000/svg">
<path d="M0.903745 6.41666H9.91446L6.93849 9.43519C6.58555 9.79311 6.58555 10.3735 6.93849 10.7315C7.11496 10.9105 7.34626 11 7.57756 11C7.80886 11 8.04015 10.9105 8.21657 10.7315L12.7353 6.14814C13.0882 5.79021 13.0882 5.20978 12.7353 4.85179L8.21657 0.268446C7.86368 -0.0894821 7.29143 -0.0894821 6.93849 0.268446C6.58555 0.626374 6.58555 1.20681 6.93849 1.5648L9.91446 4.58332H0.903745C0.404637 4.58332 0 4.99375 0 5.49999C0 6.00624 0.404637 6.41666 0.903745 6.41666Z" fill="white"/>
</svg>
