<svg width="164" height="128" viewBox="0 0 164 128" fill="none" xmlns="http://www.w3.org/2000/svg">
<g clip-path="url(#clip0_12428_11755)">
<path d="M66.2004 127.427C64.6864 121.703 68.0486 116.125 71.9773 112.263C74.0711 110.205 76.4028 108.416 78.6766 106.567C80.8585 104.814 82.9363 102.933 84.8994 100.935C88.69 97.0348 91.9967 92.5781 94.1864 87.5683C96.2687 82.8044 97.253 77.6149 96.7655 72.4168C96.3031 67.4869 94.545 62.6375 91.311 58.8551C90.908 58.3838 90.4841 57.9321 90.0393 57.4999C89.8007 57.2671 89.4352 57.6337 89.6741 57.8669C93.2855 61.3915 95.3874 66.168 96.0988 71.1372C96.8324 76.2617 96.0765 81.486 94.17 86.277C92.1391 91.3808 88.9096 95.935 85.1644 99.9092C83.2782 101.898 81.2717 103.768 79.1564 105.508C76.8973 107.378 74.55 109.146 72.3989 111.145C68.4343 114.828 64.8711 119.896 65.3606 125.6C65.4176 126.264 65.532 126.921 65.7025 127.565C65.7225 127.629 65.7666 127.683 65.8254 127.715C65.8842 127.747 65.9532 127.755 66.0177 127.738C66.0823 127.72 66.1375 127.677 66.1715 127.619C66.2056 127.561 66.216 127.492 66.2004 127.427V127.427Z" fill="#F0F0F0"/>
<path d="M82.0554 94.8435C79.6696 90.7322 77.8449 86.3169 76.6305 81.7165C75.4123 77.1173 74.803 72.3766 74.8183 67.6172C74.8357 62.858 75.4106 57.9797 76.8785 53.4412C78.2716 49.1338 80.7677 45.0261 84.7304 42.6756C86.7514 41.484 89.0585 40.8716 91.4013 40.9049C93.8758 40.9284 96.3161 41.5831 98.5456 42.6432C100.729 43.6814 102.726 45.0805 104.57 46.6402C106.329 48.1247 107.97 49.7445 109.479 51.4849C112.468 54.94 114.91 58.9406 116.274 63.3272C117.696 67.8987 117.945 72.899 116.626 77.5257C115.359 81.9696 112.583 85.7574 109.175 88.8C105.492 92.088 101.129 94.4776 96.7295 96.6463C95.6284 97.1891 94.5214 97.7195 93.4143 98.2499C93.1144 98.3935 93.3761 98.8412 93.6749 98.6981C98.3138 96.4759 102.998 94.2343 107.134 91.1317C110.782 88.3941 114.035 84.9576 115.97 80.7716C118.016 76.3448 118.435 71.3115 117.587 66.5354C116.758 61.8677 114.679 57.499 111.896 53.6942C110.513 51.8119 108.976 50.049 107.302 48.4239C105.583 46.7184 103.707 45.1814 101.699 43.8338C97.5815 41.1289 92.4327 39.4954 87.5534 40.8888C83.2156 42.1275 79.8771 45.6209 77.8905 49.58C76.7787 51.7959 76.0293 54.179 75.4962 56.5972C74.9761 58.9803 74.6263 61.3977 74.4496 63.8309C73.7406 73.5405 75.634 83.2635 79.9325 91.9879C80.4561 93.0459 81.0151 94.0851 81.6095 95.1055C81.6453 95.1624 81.7017 95.2031 81.7667 95.2191C81.8318 95.2351 81.9006 95.225 81.9584 95.191C82.0162 95.157 82.0587 95.1018 82.0768 95.037C82.0949 94.9721 82.0872 94.9028 82.0554 94.8435Z" fill="#F0F0F0"/>
<path d="M78.7849 89.826C76.3991 85.7147 74.5744 81.2995 73.36 76.6991C72.1418 72.0998 71.5325 67.3592 71.5478 62.5998C71.5652 57.8406 72.1401 52.9622 73.6079 48.4237C75.0011 44.1164 77.4971 40.0086 81.4599 37.6581C83.4809 36.4666 85.788 35.8542 88.1308 35.8874C90.6053 35.911 93.0456 36.5656 95.2751 37.6257C97.4587 38.6639 99.4554 40.063 101.3 41.6227C103.059 43.1073 104.7 44.7271 106.208 46.4674C109.198 49.9226 111.64 53.9232 113.004 58.3097C114.425 62.8812 114.675 67.8815 113.355 72.5083C112.088 76.9522 109.312 80.7399 105.904 83.7825C102.221 87.0706 97.8583 89.4601 93.459 91.6288C92.3579 92.1716 91.2509 92.7021 90.1438 93.2324C89.8439 93.3761 90.1056 93.8237 90.4044 93.6806C95.0433 91.4584 99.728 89.2168 103.863 86.1142C107.512 83.3767 110.764 79.9402 112.699 75.7541C114.745 71.3274 115.164 66.294 114.316 61.518C113.488 56.8502 111.408 52.4816 108.626 48.6768C107.243 46.7945 105.706 45.0316 104.031 43.4064C102.313 41.7009 100.437 40.1639 98.4281 38.8164C94.3109 36.1114 89.1622 34.478 84.2829 35.8713C79.9451 37.11 76.6066 40.6034 74.62 44.5625C73.5082 46.7784 72.7588 49.1615 72.2257 51.5797C71.7056 53.9628 71.3558 56.3802 71.179 58.8135C70.4701 68.523 72.3635 78.2461 76.662 86.9705C77.1856 88.0285 77.7446 89.0677 78.339 90.088C78.3748 90.1449 78.4312 90.1857 78.4962 90.2017C78.5613 90.2176 78.63 90.2075 78.6879 90.1736C78.7457 90.1396 78.7882 90.0844 78.8063 90.0195C78.8244 89.9547 78.8167 89.8853 78.7849 89.826Z" fill="#F0F0F0"/>
<path d="M59.2742 6.02949L59.2611 6.05472C56.6643 4.85224 53.7068 4.6999 51.0013 5.62926C48.2959 6.55862 46.0498 8.49845 44.7283 11.0469C43.4069 13.5953 43.1115 16.557 43.9032 19.3184C44.6949 22.0798 46.5132 24.4292 48.9812 25.88L48.9681 25.9052L68.7424 36.2641L79.0485 16.3884C79.7269 15.0832 80.1427 13.6564 80.2721 12.1896C80.4016 10.7227 80.2422 9.24464 79.803 7.83978C79.3638 6.43492 78.6534 5.13083 77.7125 4.00207C76.7716 2.87331 75.6186 1.94202 74.3194 1.26142C73.0202 0.580815 71.6002 0.164258 70.1408 0.0355582C68.6813 -0.093142 67.2109 0.0685372 65.8136 0.511354C64.4164 0.954172 63.1196 1.66944 61.9975 2.61628C60.8755 3.56312 59.95 4.72296 59.2742 6.02949Z" fill="#31B4CC"/>
<path d="M76.8921 120.083L76.8887 120.089C76.2324 119.785 75.4849 119.747 74.8011 119.981C74.1173 120.216 73.5496 120.707 73.2156 121.351C72.8816 121.995 72.8069 122.743 73.007 123.441C73.2071 124.139 73.6667 124.733 74.2905 125.1L74.2872 125.106L79.2851 127.724L81.89 122.701C82.0615 122.371 82.1666 122.01 82.1994 121.64C82.2321 121.269 82.1918 120.895 82.0808 120.54C81.9698 120.185 81.7903 119.855 81.5525 119.57C81.3147 119.285 81.0232 119.049 80.6948 118.877C80.3664 118.705 80.0075 118.6 79.6386 118.567C79.2697 118.535 78.8981 118.576 78.5449 118.688C78.1917 118.8 77.8639 118.981 77.5803 119.22C77.2967 119.459 77.0629 119.752 76.8921 120.083Z" fill="#FF6584"/>
<path d="M10.5919 56.3859V56.4143C7.7362 56.5543 5.0435 57.7931 3.07167 59.8741C1.09984 61.9551 -1.3276e-06 64.7187 0 67.5925C1.3276e-06 70.4662 1.09985 73.2299 3.07168 75.3109C5.04352 77.3918 7.73621 78.6306 10.5919 78.7706V78.7991L32.8907 78.7991L32.8907 56.3859C32.8921 54.9133 32.6048 53.4549 32.0451 52.094C31.4854 50.7331 30.6644 49.4964 29.6289 48.4546C28.5935 47.4128 27.3639 46.5864 26.0105 46.0225C24.6571 45.4587 23.2064 45.1685 21.7413 45.1685C20.2763 45.1685 18.8256 45.4587 17.4721 46.0225C16.1187 46.5864 14.8892 47.4128 13.8537 48.4546C12.8182 49.4964 11.9972 50.7331 11.4375 52.094C10.8778 53.4549 10.5905 54.9133 10.5919 56.3859V56.3859Z" fill="#31B4CC"/>
<path d="M114.513 128H3.09216C3.0378 128 2.98568 127.978 2.94724 127.94C2.9088 127.901 2.88721 127.849 2.88721 127.794C2.88721 127.739 2.9088 127.687 2.94724 127.648C2.98568 127.61 3.0378 127.588 3.09216 127.588H114.513C114.567 127.588 114.619 127.61 114.658 127.648C114.696 127.687 114.718 127.739 114.718 127.794C114.718 127.849 114.696 127.901 114.658 127.94C114.619 127.978 114.567 128 114.513 128Z" fill="#CACACA"/>
<path d="M96.7733 77.5599C99.0509 77.5456 101.253 76.7376 103.004 75.2737C104.787 73.7669 105.96 71.657 106.303 69.3412C106.505 68.032 106.44 66.6954 106.113 65.4121C106.092 65.3479 106.048 65.294 105.99 65.2618C105.931 65.2296 105.862 65.2216 105.797 65.2394C105.733 65.2573 105.678 65.2997 105.643 65.3577C105.609 65.4156 105.599 65.4846 105.615 65.5501C106.166 67.729 105.917 70.0349 104.913 72.044C104.142 73.5462 102.975 74.8066 101.539 75.6878C100.104 76.569 98.4553 77.037 96.7733 77.0408C96.7064 77.0432 96.643 77.0715 96.5965 77.12C96.5499 77.1684 96.5239 77.2331 96.5239 77.3004C96.5239 77.3677 96.5499 77.4324 96.5965 77.4808C96.643 77.5292 96.7064 77.5576 96.7733 77.5599V77.5599Z" fill="#F0F0F0"/>
<path d="M56.8985 10.1426C55.4292 8.74072 53.1092 8.74439 51.4124 9.72031C49.5082 10.8155 48.645 13.0785 48.6886 15.2034C48.7377 17.5948 49.901 19.7601 51.403 21.5536C53.0039 23.417 54.8669 25.0356 56.933 26.3581C58.9933 27.7068 61.2227 28.7747 63.5627 29.5337C63.8507 29.627 64.1402 29.7155 64.4312 29.7991C64.4964 29.8147 64.565 29.8043 64.6227 29.77C64.6803 29.7358 64.7225 29.6803 64.7403 29.6154C64.7581 29.5505 64.7502 29.4812 64.7181 29.4221C64.686 29.363 64.6324 29.3187 64.5685 29.2986C60.0748 28.0079 55.9893 25.5715 52.7087 22.2257C51.1469 20.618 49.759 18.6857 49.3322 16.4366C48.9552 14.4505 49.3718 12.1443 50.9034 10.7296C52.3922 9.35429 54.9979 9.04463 56.5333 10.5096C56.7743 10.7396 57.1401 10.3732 56.8985 10.1426V10.1426Z" fill="white"/>
<path d="M10.2103 61.8458C8.22564 61.5977 6.36178 63.0008 5.58879 64.773C4.72195 66.7604 5.30639 69.0513 6.56377 70.7309C7.94854 72.5807 10.0461 73.659 12.2386 74.2314C14.5922 74.8458 17.0906 75.0117 19.5134 74.8982C22.3774 74.7648 25.2037 74.1874 27.8922 73.1863C28.2011 73.071 28.0674 72.5692 27.755 72.6858C23.2794 74.3561 18.297 74.883 13.5906 74.0012C11.4868 73.607 9.34428 72.855 7.77659 71.3337C6.35611 69.9552 5.35121 67.8675 5.7787 65.8514C6.2035 63.848 8.09849 62.1009 10.2103 62.3648C10.5393 62.4059 10.5363 61.8865 10.2103 61.8458Z" fill="white"/>
<path d="M77.3818 107.061L75.7196 104.121C75.6838 104.064 75.6274 104.023 75.5623 104.007C75.4972 103.991 75.4285 104.001 75.3707 104.035C75.3128 104.069 75.2704 104.124 75.2523 104.189C75.2342 104.254 75.2418 104.323 75.2737 104.383L76.9359 107.323C76.9716 107.38 77.028 107.421 77.0931 107.437C77.1582 107.453 77.2269 107.443 77.2848 107.409C77.3426 107.375 77.385 107.32 77.4031 107.255C77.4212 107.19 77.4136 107.121 77.3818 107.061Z" fill="#F0F0F0"/>
<path d="M51.0598 41.0679C50.9714 40.1796 50.6837 39.323 50.2184 38.5625C49.753 37.8021 49.1222 37.1577 48.3733 36.6777C47.6244 36.1977 46.777 35.8946 45.8947 35.7914C45.0125 35.6881 44.1185 35.7872 43.2799 36.0814L43.7057 36.1251C41.796 36.509 40.0989 37.5988 38.9495 39.1791C38.3881 39.9691 38.0022 40.8712 37.818 41.8242C37.6338 42.7772 37.6556 43.7589 37.8819 44.7027C38.3645 46.5771 39.7891 48.2033 41.6127 48.8272C42.6266 49.1741 43.7151 49.2165 44.7857 49.2531C45.4806 49.2768 46.1883 49.2981 46.8583 49.1109C47.7201 48.8426 48.4776 48.3118 49.0262 47.5918C49.5697 46.8746 50.002 46.0788 50.3087 45.2316C50.8279 43.9066 51.2009 42.4849 51.0598 41.0679Z" fill="#2F2E41"/>
<path d="M31.7748 80.0989C31.5927 79.8407 31.4691 79.5455 31.4127 79.234C31.3563 78.9226 31.3686 78.6026 31.4486 78.2964C31.5286 77.9903 31.6745 77.7055 31.8758 77.4621C32.0772 77.2188 32.3292 77.0227 32.6141 76.8879L38.583 58.1025L42.7401 60.2731L35.5656 78.0559C35.7593 78.552 35.7653 79.1023 35.5823 79.6024C35.3994 80.1026 35.0403 80.518 34.573 80.7698C34.1057 81.0216 33.5628 81.0924 33.0471 80.9688C32.5313 80.8451 32.0787 80.5356 31.7748 80.0989H31.7748Z" fill="#FFB6B6"/>
<path d="M36.6515 60.7003C36.5943 60.5732 36.5652 60.4351 36.5659 60.2956C36.5667 60.1561 36.5974 60.0184 36.656 59.8919L38.7004 55.474C38.9021 54.7897 39.3655 54.2137 39.9891 53.8722C40.6126 53.5308 41.3454 53.4518 42.0268 53.6526C42.7082 53.8533 43.2826 54.3174 43.6241 54.9431C43.9656 55.5689 44.0463 56.3052 43.8486 56.9906L43.1653 61.8304C43.1458 61.9685 43.0969 62.1008 43.0219 62.2182C42.947 62.3357 42.8477 62.4354 42.7309 62.5108C42.6141 62.5862 42.4826 62.6354 42.3451 62.6551C42.2077 62.6747 42.0677 62.6644 41.9346 62.6248L37.2575 61.2319C37.1244 61.1923 37.0013 61.1244 36.8967 61.0326C36.7921 60.9409 36.7085 60.8275 36.6515 60.7003Z" fill="#2F2E41"/>
<path d="M53.8954 61.4458C52.4748 65.1846 52.8378 69.1062 54.5873 73.1698H42.1937C42.6919 70.2785 42.4898 67.5915 40.6445 65.3841L53.8954 61.4458Z" fill="#FFB6B6"/>
<path d="M39.3905 54.5751L43.0584 51.8938L49.0604 50.218L54.0621 51.2235L54.3562 54.0015C54.7138 57.3807 54.5585 60.7948 53.8954 64.1271L40.891 67.1435L39.5572 64.7974C39.5572 64.7974 36.5562 61.781 38.8903 58.4294L39.3905 54.5751Z" fill="#2F2E41"/>
<path d="M71.2482 35.8206C71.3301 36.1263 71.3443 36.4463 71.2898 36.758C71.2354 37.0698 71.1135 37.3657 70.933 37.6251C70.7524 37.8844 70.5174 38.1007 70.2447 38.2589C69.9719 38.4171 69.6679 38.5132 69.3542 38.5405L57.2799 54.0838L54.1284 50.6001L66.988 36.417C66.9773 35.8842 67.1614 35.3659 67.5054 34.9604C67.8494 34.5549 68.3295 34.2904 68.8546 34.2169C69.3797 34.1434 69.9135 34.266 70.3546 34.5616C70.7958 34.8572 71.1137 35.3052 71.2482 35.8206Z" fill="#FFB6B6"/>
<path d="M59.9873 52.3197C59.9971 52.4589 59.9769 52.5985 59.9281 52.7291C59.8793 52.8597 59.803 52.9782 59.7045 53.0764L56.2638 56.5088C55.8388 57.0806 55.2055 57.4597 54.5029 57.5629C53.8002 57.6661 53.0855 57.485 52.5155 57.0594C51.9454 56.6338 51.5665 55.9983 51.4619 55.2923C51.3573 54.5864 51.5354 53.8675 51.9573 53.2934L54.2665 48.9912C54.3324 48.8685 54.4239 48.7614 54.5347 48.6774C54.6454 48.5933 54.7729 48.5343 54.9085 48.5042C55.044 48.4742 55.1844 48.4738 55.3201 48.5033C55.4558 48.5327 55.5835 48.5911 55.6947 48.6746L59.6021 51.61C59.7133 51.6934 59.8053 51.8001 59.8718 51.9226C59.9383 52.045 59.9777 52.1805 59.9873 52.3197Z" fill="#2F2E41"/>
<path d="M39.4066 124.025H41.3057L42.2093 116.661H39.4062L39.4066 124.025Z" fill="#FFB6B6"/>
<path d="M38.7633 123.083L41.7656 122.903V124.196L44.6199 126.177C44.7609 126.275 44.8671 126.415 44.9229 126.578C44.9788 126.741 44.9814 126.918 44.9304 127.082C44.8795 127.246 44.7775 127.39 44.6395 127.492C44.5015 127.594 44.3347 127.649 44.1633 127.649H40.589L39.973 126.37L39.7324 127.649H38.3848L38.7633 123.083Z" fill="#2F2E41"/>
<path d="M52.8329 124.025H54.732L55.6355 116.661H52.8325L52.8329 124.025Z" fill="#FFB6B6"/>
<path d="M52.1901 123.083L55.1923 122.903V124.196L58.0466 126.177C58.1876 126.275 58.2938 126.415 58.3497 126.578C58.4055 126.741 58.4082 126.918 58.3572 127.082C58.3062 127.246 58.2043 127.39 58.0663 127.492C57.9283 127.594 57.7614 127.649 57.5901 127.649H54.0158L53.3997 126.37L53.1592 127.649H51.8115L52.1901 123.083Z" fill="#2F2E41"/>
<path d="M57.8787 82.7706V86.525L57.5138 91.1117C57.5138 91.1117 57.3985 95.117 57.259 98.2763C57.1747 100.197 57.08 101.804 56.9974 102.012C56.8958 102.266 56.9199 102.96 56.9785 103.688C57.0473 104.531 57.1609 105.42 57.1798 105.718C57.216 106.273 56.9233 108.659 56.9233 108.659C56.9233 108.659 56.5963 114.642 56.1212 115.119C55.6461 115.597 56.1212 116.955 56.1212 116.955C53.8938 118.606 51.0811 116.588 51.0811 116.588C51.7026 115.594 50.7162 108.803 50.7162 108.803C50.7162 108.803 50.5716 106.484 50.279 105.861C49.9864 105.238 49.9123 101.347 49.9123 101.347V95.5842C49.9123 95.5842 49.1446 94.4042 49.0362 93.854C48.9278 93.3038 49.0362 91.3591 49.0362 91.3591L48.234 88.6428L47.6849 90.7709C47.6849 90.7709 46.2632 96.7174 46.0066 97.451C45.7502 98.1846 46.1513 98.9199 46.1513 98.9199C46.1513 98.9199 46.5179 100.051 46.1513 100.571C45.9235 100.896 45.7491 101.256 45.6349 101.636C45.6349 101.636 45.4472 103.802 45.1185 104.578C44.7897 105.353 44.4988 106.308 44.4988 106.308C44.4988 106.308 44.5762 107.771 44.2475 108.102C43.9187 108.432 43.8103 110.085 43.8103 110.085C43.8103 110.085 43.8825 111.955 43.4436 112.616C43.0047 113.277 43.0047 117.021 43.0047 117.021C42.2434 117.512 41.3662 117.791 40.4625 117.83C39.5589 117.868 38.6612 117.665 37.8613 117.241C37.8613 117.241 38.2951 116.832 37.9663 114.929C37.6376 113.026 38.2021 107.844 38.2021 107.844C38.2021 107.844 38.1299 106.529 38.4947 105.941C38.8597 105.353 38.3106 104.216 38.4569 103.702C38.6032 103.188 39.0421 100.397 39.0421 100.397C39.0421 100.397 38.8597 93.5339 38.8597 93.1671C38.8165 92.5142 38.6407 91.8771 38.3433 91.2951C38.0146 90.7086 38.3433 86.4506 38.3433 86.4506C38.3433 86.4506 39.1179 84.2499 38.8597 83.7724C38.6015 83.2948 39.0318 82.4505 39.0318 82.4505C39.0318 82.4505 38.6307 81.4591 39.0318 81.2757C39.4329 81.0923 39.5069 80.3587 39.5069 80.3587L39.7857 76.7981C39.7857 76.7981 39.8908 75.1821 40.2247 75.1094C40.5586 75.0368 40.4123 74.4139 40.7411 73.9727C40.9013 73.6745 41.0118 73.3518 41.0682 73.0177C41.1146 72.8135 41.1577 72.6007 41.1938 72.3965C41.2971 71.8429 41.3608 71.3654 41.3608 71.3654C43.5159 73.1647 54.8474 71.9034 54.8595 71.9034C55.579 72.0609 56.4345 74.5713 57.0524 76.76C57.6018 78.7158 57.8798 80.7384 57.8787 82.7706Z" fill="#2F2E41"/>
<path d="M49.6365 45.4937C50.4625 42.7627 48.9295 39.8758 46.2124 39.0456C43.4954 38.2154 40.6232 39.7563 39.7973 42.4873C38.9713 45.2182 40.5043 48.1051 43.2214 48.9353C45.9384 49.7655 48.8106 48.2246 49.6365 45.4937Z" fill="#FFB6B6"/>
<path d="M38.9047 44.8911L40.8958 44.4747L41.2624 41.8188L41.9498 44.2543L42.9014 44.0552L43.1153 42.506L43.5163 43.9266L50.5875 42.4477C50.4419 41.7443 50.1599 41.0766 49.7575 40.4828C49.3552 39.8889 48.8404 39.3805 48.2426 38.9867C47.6448 38.5928 46.9757 38.3211 46.2734 38.1871C45.5711 38.0532 44.8495 38.0595 44.1497 38.2059L43.1248 38.4203C41.7115 38.7158 40.4729 39.5637 39.6814 40.7772C38.89 41.9907 38.6106 43.4705 38.9047 44.8911Z" fill="#2F2E41"/>
<path d="M43.2283 36.421C43.7083 34.4923 42.7786 32.4235 41.339 31.06C39.8994 29.6966 38.0209 28.9129 36.1616 28.2345C34.6789 27.6934 32.9422 27.2228 31.6003 28.0561C30.522 28.7257 30.0542 30.0264 29.4378 31.1396C28.2632 33.2609 26.368 34.8863 24.0991 35.7185C21.8301 36.5507 19.3389 36.5341 17.0811 35.6718C17.8769 37.994 20.6181 39.1298 23.0566 38.9721C25.495 38.8143 27.7472 37.6856 30.0188 36.7805C32.2903 35.8754 34.8171 35.1761 37.1518 35.9009C38.1372 36.2069 39.0333 36.7529 40.009 37.0889C40.9846 37.4249 42.1264 37.5249 42.9959 36.9675" fill="#2F2E41"/>
<path d="M81.1382 49.502H80.7046C78.5125 49.502 76.8625 50.0018 75.7544 51.0015C74.4175 52.2059 73.749 54.1992 73.749 56.9814C73.749 57.7523 73.8333 58.3665 74.002 58.8242C74.0501 58.9808 74.1104 59.1193 74.1826 59.2397C74.2308 59.3241 74.2549 59.4084 74.2549 59.4927C72.918 59.4927 71.9424 59.2277 71.3281 58.6978C70.6416 58.1196 70.2983 57.1922 70.2983 55.9155C70.2983 54.6388 70.5332 53.4284 71.0029 52.2842C71.4847 51.1279 72.2134 50.1162 73.189 49.249C74.2368 48.3096 75.5677 47.5809 77.1816 47.063C78.8076 46.5451 80.7227 46.2861 82.9268 46.2861C84.1914 46.2861 85.4019 46.3584 86.5581 46.5029C86.9194 46.5391 87.3892 46.6053 87.9673 46.7017C88.9308 46.8823 89.8582 47.0028 90.7495 47.063C91.1831 47.1112 91.7311 47.1353 92.3936 47.1353C93.2126 47.1353 93.9954 47.063 94.7422 46.9185C95.4889 46.7739 96.1393 46.5872 96.6934 46.3584C96.6331 47.9723 96.2176 49.1587 95.4468 49.9175C94.688 50.6763 93.5618 51.0557 92.0684 51.0557C91.2614 51.0557 90.4484 50.9894 89.6294 50.8569C88.8104 50.7244 87.7083 50.5197 86.3232 50.2427L81.2104 74H75.8989L81.1382 49.502ZM101.246 74.2168C99.7165 74.2168 98.5843 73.7832 97.8496 72.916C97.2113 72.1693 96.8921 71.2118 96.8921 70.0435C96.8921 69.4894 96.9583 68.8451 97.0908 68.1104C97.2354 67.3757 97.4461 66.4302 97.7231 65.2739C98.0002 64.0936 98.2049 63.1541 98.3374 62.4556C98.4819 61.745 98.5542 61.1307 98.5542 60.6128C98.5542 59.3481 98.1086 58.7158 97.2173 58.7158C96.591 58.7158 96.0129 59.047 95.4829 59.7095C95.0373 60.2756 94.6519 61.0825 94.3267 62.1304L91.8154 74H86.4858L91.8516 48.8335L97.3257 48.0928L95.3384 57.415C96.061 56.6081 96.8379 56.042 97.6689 55.7168C98.2832 55.4759 98.9456 55.3555 99.6562 55.3555C100.909 55.3555 101.896 55.6807 102.619 56.3311C103.39 57.0417 103.775 58.1076 103.775 59.5288C103.775 60.384 103.619 61.498 103.306 62.8711C103.221 63.2686 103.083 63.8647 102.89 64.6597C102.541 65.9966 102.288 67.0625 102.131 67.8574C102.035 68.3633 101.987 68.7728 101.987 69.0859C101.987 69.5798 102.095 69.9652 102.312 70.2422C102.541 70.5072 102.926 70.6396 103.468 70.6396C104.203 70.6396 104.823 70.3385 105.329 69.7363C105.715 69.2786 106.13 68.4897 106.576 67.3696H108.129C107.214 70.0796 106.058 71.9766 104.661 73.0605C103.673 73.8314 102.535 74.2168 101.246 74.2168ZM111.02 74.2168C109.611 74.2168 108.473 73.7772 107.605 72.8979C106.594 71.8621 106.088 70.3205 106.088 68.2729C106.088 67.4058 106.178 66.4904 106.359 65.5269C106.528 64.5633 106.78 63.6118 107.118 62.6724C107.889 60.5526 108.942 58.8423 110.279 57.5415C111.821 56.0601 113.597 55.3193 115.609 55.3193C116.609 55.3193 117.355 55.494 117.849 55.8433C118.355 56.1805 118.608 56.6322 118.608 57.1982V57.4692L119.005 55.5H124.335L121.679 68.0742C121.571 68.4355 121.517 68.833 121.517 69.2666C121.517 70.3265 122.022 70.8564 123.034 70.8564C123.709 70.8564 124.323 70.5132 124.877 69.8267C125.347 69.2485 125.732 68.4295 126.033 67.3696H127.587C126.924 69.2485 126.124 70.736 125.184 71.832C124.389 72.7354 123.492 73.3857 122.492 73.7832C121.757 74.0723 120.981 74.2168 120.162 74.2168C119.114 74.2168 118.277 73.9338 117.65 73.3677C117.036 72.7896 116.663 71.9404 116.53 70.8203C115.832 71.8079 115.097 72.5788 114.326 73.1328C113.339 73.8555 112.236 74.2168 111.02 74.2168ZM113.423 70.6396C113.7 70.6396 113.989 70.5674 114.29 70.4229C114.603 70.2783 114.904 70.0736 115.193 69.8086C115.844 69.1823 116.277 68.3693 116.494 67.3696L118.265 59.0229C118.265 58.9025 118.235 58.764 118.174 58.6074C118.126 58.4388 118.054 58.2822 117.958 58.1377C117.668 57.7884 117.265 57.6138 116.747 57.6138C116.253 57.6138 115.771 57.7764 115.302 58.1016C114.844 58.4268 114.41 58.8784 114.001 59.4565C113.278 60.5044 112.682 61.8714 112.212 63.5576C111.996 64.3044 111.833 65.0451 111.725 65.7798C111.616 66.5024 111.562 67.1589 111.562 67.749C111.562 68.9775 111.791 69.8086 112.249 70.2422C112.405 70.4108 112.58 70.5192 112.772 70.5674C112.965 70.6156 113.182 70.6396 113.423 70.6396ZM139.402 74.2168C137.873 74.2168 136.741 73.7832 136.006 72.916C135.368 72.1693 135.048 71.2118 135.048 70.0435C135.048 69.4894 135.115 68.8451 135.247 68.1104C135.392 67.3757 135.602 66.4302 135.879 65.2739C136.156 64.0936 136.361 63.1541 136.494 62.4556C136.638 61.745 136.71 61.1307 136.71 60.6128C136.71 59.3481 136.265 58.7158 135.374 58.7158C134.747 58.7158 134.169 59.047 133.639 59.7095C133.194 60.2756 132.808 61.0825 132.483 62.1304L129.972 74H124.642L128.562 55.5H133.892L133.495 57.415C134.217 56.6081 134.994 56.042 135.825 55.7168C136.439 55.4759 137.102 55.3555 137.812 55.3555C139.065 55.3555 140.053 55.6807 140.775 56.3311C141.546 57.0417 141.932 58.1076 141.932 59.5288C141.932 60.384 141.775 61.498 141.462 62.8711C141.378 63.2686 141.239 63.8647 141.046 64.6597C140.697 65.9966 140.444 67.0625 140.288 67.8574C140.191 68.3633 140.143 68.7728 140.143 69.0859C140.143 69.5798 140.251 69.9652 140.468 70.2422C140.697 70.5072 141.083 70.6396 141.625 70.6396C142.359 70.6396 142.979 70.3385 143.485 69.7363C143.871 69.2786 144.286 68.4897 144.732 67.3696H146.286C145.37 70.0796 144.214 71.9766 142.817 73.0605C141.829 73.8314 140.691 74.2168 139.402 74.2168ZM158.643 74.2168C157.113 74.2168 155.951 73.8555 155.156 73.1328C154.373 72.4102 153.982 71.3683 153.982 70.0073C153.982 69.4172 154.054 68.7728 154.199 68.0742L154.506 66.6289C154.602 66.2555 154.65 65.8039 154.65 65.2739C154.65 64.6958 154.548 64.2562 154.343 63.9551C154.139 63.6419 153.795 63.4854 153.313 63.4854C152.916 63.4854 152.5 63.5998 152.067 63.8286C151.633 64.0575 151.139 64.4007 150.585 64.8584L148.652 74H143.323L148.688 48.8335L154.163 48.0928L151.398 61.1187L158.535 55.5H162.202L154.795 60.6489C155.216 60.5405 155.626 60.4863 156.023 60.4863C156.698 60.4863 157.288 60.6007 157.794 60.8296C158.312 61.0464 158.745 61.3595 159.095 61.769C159.42 62.1545 159.667 62.6121 159.835 63.1421C160.004 63.66 160.088 64.2201 160.088 64.8223C160.088 65.3883 160.04 65.8581 159.944 66.2314L159.528 68.0742C159.408 68.4717 159.348 68.8691 159.348 69.2666C159.348 69.6882 159.456 70.0254 159.673 70.2783C159.89 70.5192 160.263 70.6396 160.793 70.6396C161.528 70.6396 162.148 70.3385 162.654 69.7363C163.039 69.2786 163.455 68.4897 163.9 67.3696H165.454C164.551 70.1037 163.364 72.0187 161.895 73.1147C160.931 73.8494 159.847 74.2168 158.643 74.2168ZM96.043 98.6001L92.4839 84.7251C90.7254 85.3875 89.3644 86.4173 88.4009 87.8145C87.4494 89.1995 86.9736 90.9098 86.9736 92.9453C86.9736 93.7161 87.0579 94.3304 87.2266 94.7881C87.2747 94.9447 87.335 95.0832 87.4072 95.2036C87.4554 95.2879 87.4795 95.3722 87.4795 95.4565C86.1426 95.4565 85.167 95.1916 84.5527 94.6616C83.8662 94.0835 83.5229 93.1501 83.5229 91.8613C83.5229 91.0544 83.6976 90.2594 84.0469 89.4766C84.3962 88.6816 84.89 87.9168 85.5283 87.1821C86.1305 86.4836 86.8472 85.8332 87.6782 85.231C88.5213 84.6167 89.4307 84.0868 90.4062 83.6411C92.4538 82.7137 94.4893 82.25 96.5127 82.25C97.0667 82.25 97.5605 82.2741 97.9941 82.3223L101.21 95.5649L106.684 82.4307H109.141L101.951 98.6001L99.5117 110H93.5859L96.043 98.6001ZM111.652 110.145C109.822 110.145 108.406 109.699 107.407 108.808C106.287 107.82 105.727 106.32 105.727 104.309C105.727 103.55 105.805 102.713 105.961 101.798C106.118 100.87 106.359 99.937 106.684 98.9976C107.431 96.7573 108.497 94.9688 109.882 93.6318C111.556 91.9938 113.549 91.1748 115.862 91.1748C119.029 91.1748 120.613 93.144 120.613 97.0825V97.1187C120.686 97.1427 120.746 97.1548 120.794 97.1548H121.011C121.83 97.1548 122.799 96.9259 123.919 96.4683C124.907 96.0588 125.84 95.5469 126.72 94.9326L127.045 95.9443C126.322 96.7031 125.389 97.3475 124.245 97.8774C123.112 98.4074 121.86 98.7868 120.487 99.0156C120.342 100.69 120.017 102.219 119.511 103.604C119.005 104.978 118.355 106.158 117.56 107.146C116.777 108.109 115.88 108.85 114.868 109.368C113.856 109.886 112.785 110.145 111.652 110.145ZM113.134 106.82C113.567 106.82 114.007 106.628 114.453 106.242C114.91 105.845 115.338 105.297 115.735 104.598C116.133 103.9 116.476 103.081 116.765 102.141C117.054 101.202 117.271 100.196 117.416 99.124C117.054 99.0277 116.795 98.847 116.639 98.582C116.494 98.3171 116.422 97.9798 116.422 97.5703C116.422 97.0645 116.524 96.6429 116.729 96.3057C116.934 95.9684 117.217 95.7215 117.578 95.5649C117.53 94.7821 117.403 94.222 117.199 93.8848C117.09 93.7161 116.952 93.5957 116.783 93.5234C116.627 93.4512 116.422 93.415 116.169 93.415C115.338 93.415 114.525 94.0413 113.73 95.2939C112.995 96.4261 112.393 97.8232 111.923 99.4854C111.466 101.111 111.237 102.557 111.237 103.821C111.237 104.436 111.267 104.935 111.327 105.321C111.399 105.706 111.514 106.007 111.67 106.224C111.815 106.441 112.002 106.597 112.23 106.694C112.459 106.778 112.76 106.82 113.134 106.82ZM126.178 110.217C124.997 110.217 124.064 109.868 123.377 109.169C122.607 108.398 122.221 107.272 122.221 105.791C122.221 105.092 122.318 104.285 122.51 103.37L125.021 91.5H130.351L127.695 104.074C127.623 104.448 127.587 104.797 127.587 105.122C127.587 106.134 127.954 106.64 128.689 106.64C129.363 106.64 129.972 106.333 130.514 105.718C130.947 105.2 131.327 104.417 131.652 103.37L134.163 91.5H139.493L136.837 104.074C136.729 104.436 136.674 104.833 136.674 105.267C136.674 105.772 136.795 106.128 137.036 106.333C137.277 106.537 137.662 106.64 138.192 106.64C138.878 106.64 139.493 106.333 140.035 105.718C140.516 105.176 140.902 104.393 141.191 103.37H142.745C142.082 105.249 141.281 106.736 140.342 107.832C139.547 108.735 138.65 109.386 137.65 109.783C136.915 110.072 136.138 110.217 135.319 110.217C134.259 110.217 133.416 109.922 132.79 109.332C132.164 108.741 131.784 107.868 131.652 106.712C130.809 108.061 129.857 109.024 128.797 109.603C128.039 110.012 127.165 110.217 126.178 110.217ZM147.641 82.9546L153.332 82.1777L147.966 101.455H144.822L147.641 82.9546ZM145.346 110.217C144.949 110.217 144.569 110.145 144.208 110C143.859 109.843 143.546 109.627 143.269 109.35C142.992 109.085 142.775 108.771 142.618 108.41C142.462 108.037 142.383 107.651 142.383 107.254C142.383 106.856 142.462 106.483 142.618 106.134C142.775 105.772 142.992 105.459 143.269 105.194C143.859 104.628 144.551 104.345 145.346 104.345C145.744 104.345 146.123 104.424 146.484 104.58C146.846 104.725 147.159 104.929 147.424 105.194C147.689 105.459 147.894 105.772 148.038 106.134C148.195 106.483 148.273 106.856 148.273 107.254C148.273 107.651 148.195 108.037 148.038 108.41C147.894 108.771 147.689 109.085 147.424 109.35C147.159 109.615 146.846 109.825 146.484 109.982C146.123 110.139 145.744 110.217 145.346 110.217Z" fill="#31B4CC"/>
</g>
<defs>
<clipPath id="clip0_12428_11755">
<rect width="164" height="128" fill="white"/>
</clipPath>
</defs>
</svg>
