<svg xmlns="http://www.w3.org/2000/svg" xmlns:xlink="http://www.w3.org/1999/xlink" id="Layer_1" x="0px" y="0px" viewBox="0 0 1557 210" style="enable-background:new 0 0 1557 210;" xml:space="preserve"><style type="text/css">	.st0{enable-background:new    ;}	.st1{fill:#3FBCD7;}</style><g class="st0">	<path class="st1" d="M126.6,14.7c21.5,0,38.4,5.6,50.8,16.9c12.4,11.3,18.5,26.7,18.5,46.2c0,25.8-9.1,47.4-27.1,64.7  c-18,17.3-40.4,25.9-67,25.9c-21.3,0-38.2-5.7-50.5-17c-12.3-11.3-18.4-26.8-18.4-46.3c0-2.2,0.1-4.4,0.2-6.8  c0.1-2.3,1.2-9.8,3.3-22.4C38.5,63.2,48,49.9,65,35.8C82,21.7,102.5,14.7,126.6,14.7z M87.7,102.3c0.9,5.9,3.4,10.5,7.3,13.9  c3.9,3.4,8.8,5,14.7,5c8.6,0,16-3.5,22.2-10.5s9.3-15.3,9.3-25c0-7-2-12.7-5.9-17c-4-4.4-9.3-6.6-16-6.6c-8.8,0-16.2,3.5-22.4,10.5  S87.5,88,87.5,97.8L87.7,102.3z"></path>	<path class="st1" d="M209.7,61.9h48.8l-2.7,15.6c9.7-12.7,21.5-19.1,35.3-19.1c11.1,0,19.9,3.7,26.5,11.2  c6.6,7.5,9.8,17.5,9.8,30.1c0,18.1-5.3,33.8-15.9,47.2c-10.6,13.4-23,20.1-37.4,20.1c-14.2,0-23.6-5.9-28.1-17.7l-9.3,57.5h-50.1  L209.7,61.9z M249.8,113.1l0,3.1c0,7.9,3.9,11.8,11.6,11.8c4.8,0,8.7-1.7,11.8-5.1c3.1-3.4,4.7-7.7,4.7-12.8c0-3.7-1-6.6-3.1-8.8  c-2-2.2-4.9-3.3-8.6-3.3c-4,0-7.5,1.4-10.6,4.2C252.6,105,250.7,108.6,249.8,113.1z"></path>	<path class="st1" d="M336.4,61.7l12.6,0l5.4-33.9h50l-5.6,35.5l17.5-1.6l-6.6,40.2l-16.8-1.4l-10.3,64.9h-50.1l10.3-64.7l-12.7,1.2  L336.4,61.7z"></path>	<path class="st1" d="M420.4,61.7h50.1L454,165.4h-50.1L420.4,61.7z M452.9,4c7.1,0,13.2,2.4,18.2,7.1c5,4.7,7.5,10.5,7.5,17.3  c0,6.7-3.1,12.5-9.4,17.2c-6.2,4.8-13.7,7.2-22.3,7.2c-6.4,0-12-2.3-16.8-7c-4.8-4.6-7.2-10.3-7.2-16.8c0-6.8,3-12.7,8.8-17.7  C437.7,6.5,444.7,4,452.9,4z"></path>	<path class="st1" d="M483.4,61.9h49.1L528,81.4c9.2-15,20.8-22.6,34.9-22.6c14.9,0,23.9,7.8,26.9,23.4c3.7-7.6,8.6-13.4,14.6-17.4  c6-4,12.9-6,20.7-6c9.6,0,17.2,2.7,22.8,8.2c5.6,5.5,8.4,13.2,8.4,23c0,2.5-0.1,4.7-0.4,6.7c-0.3,2-0.5,3.6-0.6,4.8l-10.3,63.7  h-49.7l8.2-52.8l1.1-7.2c0-4.1-1.8-6.2-5.5-6.2c-3.5,0-6,1-7.2,3.1c-1.3,2.1-2,3.7-2.3,4.8c-0.2,1.2-0.5,3.1-0.9,5.9l-8.3,52.3H532  l8.3-51.9l0.6-6.4c0-4.4-1.6-6.6-4.7-6.6c-5.9,0-9.5,4.1-10.7,12.3l-8.6,52.5h-49.9L483.4,61.9z"></path>	<path class="st1" d="M782.4,119.7c-1.7,9.8-5,18.2-10.1,25.2c-5.1,7-12.6,12.5-22.5,16.7c-9.9,4.2-21,6.2-33.2,6.2  c-15.9,0-28.4-3.3-37.5-10c-9.2-6.7-13.7-16-13.7-27.9c0-2,0-4.1,0-6.1c0.4-1.9,0.7-3.3,0.8-4.1l9.3-57.8h50.1l-8.7,54.2l-0.6,5.2  c0,4.6,2.2,6.9,6.6,6.9c2.9,0,5.1-0.9,6.7-2.8c1.6-1.9,2.7-5,3.4-9.3l8.7-54.2h49.9L782.4,119.7z"></path>	<path class="st1" d="M804,61.9h49.1l-4.5,19.5c9.2-15,20.8-22.6,34.9-22.6c14.9,0,23.9,7.8,26.9,23.4c3.7-7.6,8.6-13.4,14.6-17.4  c6-4,12.9-6,20.7-6c9.6,0,17.2,2.7,22.8,8.2c5.6,5.5,8.4,13.2,8.4,23c0,2.5-0.1,4.7-0.4,6.7c-0.3,2-0.5,3.6-0.6,4.8l-10.3,63.7  h-49.7l8.2-52.8l1.1-7.2c0-4.1-1.8-6.2-5.5-6.2c-3.5,0-6,1-7.2,3.1c-1.3,2.1-2,3.7-2.3,4.8c-0.2,1.2-0.5,3.1-0.9,5.9l-8.3,52.3  h-48.3l8.3-51.9l0.6-6.4c0-4.4-1.6-6.6-4.7-6.6c-5.9,0-9.5,4.1-10.7,12.3l-8.6,52.5h-49.9L804,61.9z"></path>	<path class="st1" d="M1002.5,17.2h73.3c12.6,0,22.7,3.2,30.5,9.5c7.7,6.3,11.6,14.6,11.6,24.9c0,8.6-2.3,16.3-7,22.9  c-4.7,6.7-11,11.4-18.9,14.3c14.8,4.8,22.1,14.8,22.1,30.2c0,5.6-1.7,11.6-5,18c-3.4,6.4-8.8,12.7-16.4,19  c-7.6,6.3-19.3,9.4-35.2,9.4h-78.6L1002.5,17.2z M1035.5,129.8h13.5c4.2,0,7.9-1.4,10.9-4.1c3-2.7,4.5-6.1,4.5-10.1  c0-7-4.6-10.5-13.7-10.5h-11.5L1035.5,129.8z M1044.3,74.2h9c4.4,0,7.9-1.2,10.6-3.6s4-5.5,4-9.2c0-2.9-0.9-5.1-2.7-6.6  c-1.8-1.5-4.2-2.3-7.4-2.3h-10.1L1044.3,74.2z"></path>	<path class="st1" d="M1130.6,61.7h49.7l-2.3,15.2C1184.7,65,1196,59,1212,59h3.9l-7.9,50.5c-5.2-4-10.3-6-15.2-6  c-2.3,0-4.6,0.3-6.8,0.9c-2.2,0.6-4.9,2-8.2,4.2c-3.3,2.2-5.8,8.1-7.4,17.7l-6.2,39H1114L1130.6,61.7z"></path>	<path class="st1" d="M1255.1,122l-0.6,6.8c0,7.5,3.2,11.3,9.6,11.3c6.2,0,10.3-2.9,12.5-8.6h48.8c-5.2,11.5-13.7,20.7-25.6,27.5  c-11.8,6.8-25.1,10.3-39.7,10.3c-16.4,0-29.5-4-39.2-12.1c-9.7-8.1-14.5-19.1-14.5-33c0-18.6,6.9-34.3,20.6-47.2  c13.7-12.9,30.5-19.3,50.5-19.3c16.4,0,29.3,4.4,38.8,13.3c9.4,8.9,14.1,21.1,14.1,36.7c0,4.2-0.5,9-1.5,14.4H1255.1z M1259,102.5  h25l0.8-4.1c0-3.6-1-6.5-3.1-8.8c-2-2.3-4.6-3.5-7.8-3.5C1265.8,86.1,1260.8,91.6,1259,102.5z"></path>	<path class="st1" d="M1391.2,61.9l2.6,37.8l0.4,9.8l-0.8,13.5l4.9-16l2.5-7.2l15.2-38h34.7l3,38l0,13.9l0,9.2  c0.8-4.6,1.6-8,2.3-10.2c0.7-2.2,1.3-4.1,1.9-5.7l2.7-7.4l14.9-37.8h54.5l-57.7,103.4h-42.2l-3.9-32.4c-0.4-1.8-0.7-3.7-0.8-5.6  c-0.1-2-0.2-4.2-0.2-6.7l0-9c-0.6,2.7-1.1,5.1-1.8,7.2c-0.6,2.1-1.5,4.7-2.8,8l-2.5,6.2l-14.4,32.4h-42.3l-24.7-103.4H1391.2z"></path></g></svg>